<mxfile host="app.diagrams.net" modified="2021-01-30T18:05:44.043Z" agent="5.0 (Macintosh; Intel Mac OS X 10_13_2) AppleWebKit/537.36 (KHTML, like Gecko) Chrome/88.0.4324.96 Safari/537.36" etag="qthkRBdFZqlb3_jMWgqs" version="14.2.7" type="github">
  <diagram id="hjLzeMbraxswB3M8S4vO" name="Page-1">
    <mxGraphModel dx="2556" dy="1600" grid="1" gridSize="10" guides="1" tooltips="1" connect="1" arrows="1" fold="1" page="1" pageScale="1" pageWidth="827" pageHeight="1169" background="#ffffff" math="0" shadow="0">
      <root>
        <mxCell id="0" />
        <mxCell id="1" parent="0" />
        <mxCell id="QH5kVCey-qOMAw6Wp_jd-15" style="edgeStyle=orthogonalEdgeStyle;curved=1;rounded=0;orthogonalLoop=1;jettySize=auto;html=1;exitX=0.5;exitY=0;exitDx=0;exitDy=0;entryX=0.5;entryY=1;entryDx=0;entryDy=0;strokeColor=#028090;fontColor=#E4FDE1;strokeWidth=2;labelBackgroundColor=#114B5F;" edge="1" parent="1" source="QH5kVCey-qOMAw6Wp_jd-1" target="QH5kVCey-qOMAw6Wp_jd-7">
          <mxGeometry relative="1" as="geometry" />
        </mxCell>
        <mxCell id="QH5kVCey-qOMAw6Wp_jd-13" style="edgeStyle=orthogonalEdgeStyle;curved=1;rounded=0;orthogonalLoop=1;jettySize=auto;html=1;exitX=1;exitY=0.5;exitDx=0;exitDy=0;entryX=0.5;entryY=1;entryDx=0;entryDy=0;fontColor=#E4FDE1;strokeColor=#028090;strokeWidth=2;labelBackgroundColor=#114B5F;" edge="1" parent="1" source="QH5kVCey-qOMAw6Wp_jd-31" target="QH5kVCey-qOMAw6Wp_jd-1">
          <mxGeometry relative="1" as="geometry">
            <mxPoint x="310" y="302.5" as="sourcePoint" />
          </mxGeometry>
        </mxCell>
        <mxCell id="QH5kVCey-qOMAw6Wp_jd-14" style="edgeStyle=orthogonalEdgeStyle;curved=1;rounded=0;orthogonalLoop=1;jettySize=auto;html=1;exitX=0;exitY=0.5;exitDx=0;exitDy=0;fontColor=#E4FDE1;strokeColor=#028090;strokeWidth=2;entryX=0.5;entryY=1;entryDx=0;entryDy=0;labelBackgroundColor=#114B5F;" edge="1" parent="1" source="QH5kVCey-qOMAw6Wp_jd-33" target="QH5kVCey-qOMAw6Wp_jd-1">
          <mxGeometry relative="1" as="geometry">
            <mxPoint x="400" y="170" as="targetPoint" />
            <mxPoint x="480" y="305" as="sourcePoint" />
          </mxGeometry>
        </mxCell>
        <mxCell id="QH5kVCey-qOMAw6Wp_jd-26" value="" style="group;fontColor=#E4FDE1;" vertex="1" connectable="0" parent="1">
          <mxGeometry x="350" y="120" width="100" height="50" as="geometry" />
        </mxCell>
        <mxCell id="QH5kVCey-qOMAw6Wp_jd-1" value="" style="rounded=1;whiteSpace=wrap;html=1;fillColor=#1ba1e2;strokeColor=#006EAF;fontColor=#ffffff;strokeWidth=1;" vertex="1" parent="QH5kVCey-qOMAw6Wp_jd-26">
          <mxGeometry x="10" width="80" height="40" as="geometry" />
        </mxCell>
        <mxCell id="QH5kVCey-qOMAw6Wp_jd-8" value="&lt;font style=&quot;font-size: 14px&quot;&gt;物体&lt;/font&gt;" style="text;html=1;align=center;verticalAlign=middle;whiteSpace=wrap;rounded=0;fontColor=#E4FDE1;aspect=fixed;" vertex="1" parent="QH5kVCey-qOMAw6Wp_jd-26">
          <mxGeometry x="15" y="10" width="70" height="20" as="geometry" />
        </mxCell>
        <mxCell id="QH5kVCey-qOMAw6Wp_jd-27" value="" style="group;fontColor=#E4FDE1;" vertex="1" connectable="0" parent="1">
          <mxGeometry x="350" y="30" width="100" height="50" as="geometry" />
        </mxCell>
        <mxCell id="QH5kVCey-qOMAw6Wp_jd-7" value="" style="rounded=0;whiteSpace=wrap;html=1;strokeWidth=1;fontColor=#ffffff;fillColor=#1ba1e2;strokeColor=#006EAF;aspect=fixed;shadow=0;glass=0;sketch=0;" vertex="1" parent="QH5kVCey-qOMAw6Wp_jd-27">
          <mxGeometry x="10" y="5" width="80" height="40" as="geometry" />
        </mxCell>
        <mxCell id="QH5kVCey-qOMAw6Wp_jd-6" value="&lt;font style=&quot;font-size: 14px&quot; color=&quot;#ffffff&quot;&gt;城市空间&lt;/font&gt;" style="text;html=1;align=center;verticalAlign=middle;whiteSpace=wrap;rounded=0;fontColor=#E4FDE1;aspect=fixed;" vertex="1" parent="QH5kVCey-qOMAw6Wp_jd-27">
          <mxGeometry x="15" y="15" width="70" height="20" as="geometry" />
        </mxCell>
        <mxCell id="QH5kVCey-qOMAw6Wp_jd-30" value="" style="group;fontColor=#E4FDE1;" vertex="1" connectable="0" parent="1">
          <mxGeometry x="120" y="245" width="80" height="30" as="geometry" />
        </mxCell>
        <mxCell id="QH5kVCey-qOMAw6Wp_jd-28" value="" style="rounded=1;whiteSpace=wrap;html=1;shadow=0;glass=0;sketch=0;strokeWidth=1;fontColor=#ffffff;fillColor=#FF8000;strokeColor=#FF8000;" vertex="1" parent="QH5kVCey-qOMAw6Wp_jd-30">
          <mxGeometry width="80" height="30" as="geometry" />
        </mxCell>
        <mxCell id="QH5kVCey-qOMAw6Wp_jd-29" value="&lt;font style=&quot;font-size: 12px&quot; color=&quot;#ffffff&quot;&gt;交通工具&lt;/font&gt;" style="text;html=1;strokeColor=none;fillColor=none;align=center;verticalAlign=middle;whiteSpace=wrap;rounded=0;shadow=0;glass=0;sketch=0;fontColor=#E4FDE1;fontSize=14;" vertex="1" parent="QH5kVCey-qOMAw6Wp_jd-30">
          <mxGeometry x="4.446535947712419" y="5" width="71.11111111111111" height="20" as="geometry" />
        </mxCell>
        <mxCell id="QH5kVCey-qOMAw6Wp_jd-38" style="edgeStyle=orthogonalEdgeStyle;curved=1;rounded=0;orthogonalLoop=1;jettySize=auto;html=1;entryX=0;entryY=0.5;entryDx=0;entryDy=0;strokeColor=#028090;strokeWidth=2;fontSize=14;fontColor=#E4FDE1;labelBackgroundColor=#114B5F;" edge="1" parent="1" source="QH5kVCey-qOMAw6Wp_jd-28" target="QH5kVCey-qOMAw6Wp_jd-31">
          <mxGeometry relative="1" as="geometry" />
        </mxCell>
        <mxCell id="QH5kVCey-qOMAw6Wp_jd-41" value="" style="group;fontColor=#E4FDE1;fillColor=#ffffff;" vertex="1" connectable="0" parent="1">
          <mxGeometry x="-50" y="110" width="50" height="30" as="geometry" />
        </mxCell>
        <mxCell id="QH5kVCey-qOMAw6Wp_jd-39" value="" style="rounded=1;whiteSpace=wrap;html=1;shadow=0;glass=0;sketch=0;strokeWidth=1;fontSize=14;fontColor=#E4FDE1;strokeColor=#028090;" vertex="1" parent="QH5kVCey-qOMAw6Wp_jd-41">
          <mxGeometry width="50" height="30" as="geometry" />
        </mxCell>
        <mxCell id="QH5kVCey-qOMAw6Wp_jd-40" value="&lt;font color=&quot;#3399ff&quot; style=&quot;font-size: 12px;&quot;&gt;飞机&lt;/font&gt;" style="text;html=1;strokeColor=none;align=center;verticalAlign=middle;whiteSpace=wrap;rounded=0;shadow=0;glass=0;sketch=0;fontSize=12;fontColor=#E4FDE1;fillColor=#ffffff;" vertex="1" parent="QH5kVCey-qOMAw6Wp_jd-41">
          <mxGeometry x="5" y="5" width="40" height="20" as="geometry" />
        </mxCell>
        <mxCell id="QH5kVCey-qOMAw6Wp_jd-42" value="" style="group;fontColor=#E4FDE1;fillColor=#ffffff;" vertex="1" connectable="0" parent="1">
          <mxGeometry x="80" y="110" width="50" height="30" as="geometry" />
        </mxCell>
        <mxCell id="QH5kVCey-qOMAw6Wp_jd-43" value="" style="rounded=1;whiteSpace=wrap;html=1;shadow=0;glass=0;sketch=0;strokeWidth=1;fontSize=14;fontColor=#E4FDE1;strokeColor=#028090;" vertex="1" parent="QH5kVCey-qOMAw6Wp_jd-42">
          <mxGeometry width="50" height="30" as="geometry" />
        </mxCell>
        <mxCell id="QH5kVCey-qOMAw6Wp_jd-44" value="&lt;font color=&quot;#3399ff&quot; style=&quot;font-size: 12px&quot;&gt;船舶&lt;/font&gt;" style="text;html=1;strokeColor=none;align=center;verticalAlign=middle;whiteSpace=wrap;rounded=0;shadow=0;glass=0;sketch=0;fontSize=12;fontColor=#E4FDE1;fillColor=#ffffff;" vertex="1" parent="QH5kVCey-qOMAw6Wp_jd-42">
          <mxGeometry x="5" y="5" width="40" height="20" as="geometry" />
        </mxCell>
        <mxCell id="QH5kVCey-qOMAw6Wp_jd-45" value="" style="group;fontColor=#E4FDE1;fillColor=#ffffff;" vertex="1" connectable="0" parent="1">
          <mxGeometry x="80" y="370" width="50" height="30" as="geometry" />
        </mxCell>
        <mxCell id="QH5kVCey-qOMAw6Wp_jd-46" value="" style="rounded=1;whiteSpace=wrap;html=1;shadow=0;glass=0;sketch=0;strokeWidth=1;fontSize=14;fontColor=#E4FDE1;strokeColor=#028090;" vertex="1" parent="QH5kVCey-qOMAw6Wp_jd-45">
          <mxGeometry width="50" height="30" as="geometry" />
        </mxCell>
        <mxCell id="QH5kVCey-qOMAw6Wp_jd-47" value="&lt;font color=&quot;#3399ff&quot; style=&quot;font-size: 12px&quot;&gt;自行车&lt;/font&gt;" style="text;html=1;strokeColor=none;align=center;verticalAlign=middle;whiteSpace=wrap;rounded=0;shadow=0;glass=0;sketch=0;fontSize=12;fontColor=#E4FDE1;fillColor=#ffffff;" vertex="1" parent="QH5kVCey-qOMAw6Wp_jd-45">
          <mxGeometry x="5" y="5" width="40" height="20" as="geometry" />
        </mxCell>
        <mxCell id="QH5kVCey-qOMAw6Wp_jd-56" value="" style="group;fontColor=#E4FDE1;fillColor=#ffffff;" vertex="1" connectable="0" parent="1">
          <mxGeometry x="-140" y="210" width="50" height="30" as="geometry" />
        </mxCell>
        <mxCell id="QH5kVCey-qOMAw6Wp_jd-57" value="" style="rounded=1;whiteSpace=wrap;html=1;shadow=0;glass=0;sketch=0;strokeWidth=1;fontSize=14;fontColor=#E4FDE1;strokeColor=#028090;" vertex="1" parent="QH5kVCey-qOMAw6Wp_jd-56">
          <mxGeometry width="50" height="30" as="geometry" />
        </mxCell>
        <mxCell id="QH5kVCey-qOMAw6Wp_jd-58" value="&lt;font color=&quot;#3399ff&quot; style=&quot;font-size: 12px&quot;&gt;轿车&lt;/font&gt;" style="text;html=1;strokeColor=none;align=center;verticalAlign=middle;whiteSpace=wrap;rounded=0;shadow=0;glass=0;sketch=0;fontSize=12;fontColor=#E4FDE1;fillColor=#ffffff;" vertex="1" parent="QH5kVCey-qOMAw6Wp_jd-56">
          <mxGeometry x="5" y="5" width="40" height="20" as="geometry" />
        </mxCell>
        <mxCell id="QH5kVCey-qOMAw6Wp_jd-59" value="" style="group;fontColor=#E4FDE1;fillColor=#ffffff;" vertex="1" connectable="0" parent="1">
          <mxGeometry x="-140" y="280" width="50" height="30" as="geometry" />
        </mxCell>
        <mxCell id="QH5kVCey-qOMAw6Wp_jd-60" value="" style="rounded=1;whiteSpace=wrap;html=1;shadow=0;glass=0;sketch=0;strokeWidth=1;fontSize=14;fontColor=#E4FDE1;strokeColor=#028090;" vertex="1" parent="QH5kVCey-qOMAw6Wp_jd-59">
          <mxGeometry width="50" height="30" as="geometry" />
        </mxCell>
        <mxCell id="QH5kVCey-qOMAw6Wp_jd-61" value="&lt;font color=&quot;#3399ff&quot; style=&quot;font-size: 12px&quot;&gt;公交车&lt;/font&gt;" style="text;html=1;strokeColor=none;align=center;verticalAlign=middle;whiteSpace=wrap;rounded=0;shadow=0;glass=0;sketch=0;fontSize=12;fontColor=#E4FDE1;fillColor=#ffffff;" vertex="1" parent="QH5kVCey-qOMAw6Wp_jd-59">
          <mxGeometry x="5" y="5" width="40" height="20" as="geometry" />
        </mxCell>
        <mxCell id="QH5kVCey-qOMAw6Wp_jd-62" value="" style="group;fontColor=#E4FDE1;fillColor=#ffffff;" vertex="1" connectable="0" parent="1">
          <mxGeometry x="-70" y="210" width="50" height="30" as="geometry" />
        </mxCell>
        <mxCell id="QH5kVCey-qOMAw6Wp_jd-63" value="" style="rounded=1;whiteSpace=wrap;html=1;shadow=0;glass=0;sketch=0;strokeWidth=1;fontSize=14;fontColor=#E4FDE1;strokeColor=#028090;" vertex="1" parent="QH5kVCey-qOMAw6Wp_jd-62">
          <mxGeometry width="50" height="30" as="geometry" />
        </mxCell>
        <mxCell id="QH5kVCey-qOMAw6Wp_jd-64" value="&lt;font color=&quot;#3399ff&quot; style=&quot;font-size: 12px&quot;&gt;巴士&lt;/font&gt;" style="text;html=1;strokeColor=none;align=center;verticalAlign=middle;whiteSpace=wrap;rounded=0;shadow=0;glass=0;sketch=0;fontSize=12;fontColor=#E4FDE1;fillColor=#ffffff;" vertex="1" parent="QH5kVCey-qOMAw6Wp_jd-62">
          <mxGeometry x="5" y="5" width="40" height="20" as="geometry" />
        </mxCell>
        <mxCell id="QH5kVCey-qOMAw6Wp_jd-65" value="" style="group;fontColor=#E4FDE1;fillColor=#ffffff;" vertex="1" connectable="0" parent="1">
          <mxGeometry x="-40" y="370" width="50" height="30" as="geometry" />
        </mxCell>
        <mxCell id="QH5kVCey-qOMAw6Wp_jd-66" value="" style="rounded=1;whiteSpace=wrap;html=1;shadow=0;glass=0;sketch=0;strokeWidth=1;fontSize=14;fontColor=#E4FDE1;strokeColor=#028090;" vertex="1" parent="QH5kVCey-qOMAw6Wp_jd-65">
          <mxGeometry width="50" height="30" as="geometry" />
        </mxCell>
        <mxCell id="QH5kVCey-qOMAw6Wp_jd-67" value="&lt;font color=&quot;#3399ff&quot; style=&quot;font-size: 12px&quot;&gt;摩托车&lt;/font&gt;" style="text;html=1;strokeColor=none;align=center;verticalAlign=middle;whiteSpace=wrap;rounded=0;shadow=0;glass=0;sketch=0;fontSize=12;fontColor=#E4FDE1;fillColor=#ffffff;" vertex="1" parent="QH5kVCey-qOMAw6Wp_jd-65">
          <mxGeometry x="5" y="5" width="40" height="20" as="geometry" />
        </mxCell>
        <mxCell id="QH5kVCey-qOMAw6Wp_jd-68" value="" style="group;fontColor=#ffffff;" vertex="1" connectable="0" parent="1">
          <mxGeometry x="20" y="180" width="40.01" height="30" as="geometry" />
        </mxCell>
        <mxCell id="QH5kVCey-qOMAw6Wp_jd-69" value="" style="rounded=1;whiteSpace=wrap;html=1;shadow=0;glass=0;sketch=0;strokeWidth=1;fontColor=#ffffff;fillColor=#FF8000;strokeColor=#FF8000;" vertex="1" parent="QH5kVCey-qOMAw6Wp_jd-68">
          <mxGeometry width="40" height="30" as="geometry" />
        </mxCell>
        <mxCell id="QH5kVCey-qOMAw6Wp_jd-70" value="&lt;font style=&quot;font-size: 12px&quot;&gt;大型&lt;/font&gt;" style="text;html=1;align=center;verticalAlign=middle;whiteSpace=wrap;rounded=0;shadow=0;glass=0;sketch=0;fontColor=#ffffff;fontSize=14;" vertex="1" parent="QH5kVCey-qOMAw6Wp_jd-68">
          <mxGeometry x="1.1099999999999999" y="5" width="37.78" height="20" as="geometry" />
        </mxCell>
        <mxCell id="QH5kVCey-qOMAw6Wp_jd-71" value="" style="group;fontColor=#ffffff;" vertex="1" connectable="0" parent="1">
          <mxGeometry x="20" y="245" width="40.01" height="30" as="geometry" />
        </mxCell>
        <mxCell id="QH5kVCey-qOMAw6Wp_jd-72" value="" style="rounded=1;whiteSpace=wrap;html=1;shadow=0;glass=0;sketch=0;strokeWidth=1;fontColor=#ffffff;fillColor=#FF8000;strokeColor=#FF8000;" vertex="1" parent="QH5kVCey-qOMAw6Wp_jd-71">
          <mxGeometry width="40" height="30" as="geometry" />
        </mxCell>
        <mxCell id="QH5kVCey-qOMAw6Wp_jd-73" value="&lt;font style=&quot;font-size: 12px&quot;&gt;中型&lt;/font&gt;" style="text;html=1;align=center;verticalAlign=middle;whiteSpace=wrap;rounded=0;shadow=0;glass=0;sketch=0;fontColor=#ffffff;fontSize=14;" vertex="1" parent="QH5kVCey-qOMAw6Wp_jd-71">
          <mxGeometry x="1.1099999999999999" y="5" width="37.78" height="20" as="geometry" />
        </mxCell>
        <mxCell id="QH5kVCey-qOMAw6Wp_jd-77" value="" style="group;fontColor=#E4FDE1;fillColor=#ffffff;" vertex="1" connectable="0" parent="1">
          <mxGeometry x="-70" y="280" width="50" height="30" as="geometry" />
        </mxCell>
        <mxCell id="QH5kVCey-qOMAw6Wp_jd-78" value="" style="rounded=1;whiteSpace=wrap;html=1;shadow=0;glass=0;sketch=0;strokeWidth=1;fontSize=14;fontColor=#E4FDE1;strokeColor=#028090;" vertex="1" parent="QH5kVCey-qOMAw6Wp_jd-77">
          <mxGeometry width="50" height="30" as="geometry" />
        </mxCell>
        <mxCell id="QH5kVCey-qOMAw6Wp_jd-79" value="&lt;font color=&quot;#3399ff&quot; style=&quot;font-size: 12px&quot;&gt;卡车&lt;/font&gt;" style="text;html=1;strokeColor=none;align=center;verticalAlign=middle;whiteSpace=wrap;rounded=0;shadow=0;glass=0;sketch=0;fontSize=12;fontColor=#E4FDE1;fillColor=#ffffff;" vertex="1" parent="QH5kVCey-qOMAw6Wp_jd-77">
          <mxGeometry x="5" y="5" width="40" height="20" as="geometry" />
        </mxCell>
        <mxCell id="QH5kVCey-qOMAw6Wp_jd-83" value="" style="group;fontColor=#ffffff;" vertex="1" connectable="0" parent="1">
          <mxGeometry x="20" y="310" width="40.01" height="30" as="geometry" />
        </mxCell>
        <mxCell id="QH5kVCey-qOMAw6Wp_jd-84" value="" style="rounded=1;whiteSpace=wrap;html=1;shadow=0;glass=0;sketch=0;strokeWidth=1;fontColor=#ffffff;fillColor=#FF8000;strokeColor=#FF8000;" vertex="1" parent="QH5kVCey-qOMAw6Wp_jd-83">
          <mxGeometry width="40" height="30" as="geometry" />
        </mxCell>
        <mxCell id="QH5kVCey-qOMAw6Wp_jd-85" value="&lt;font style=&quot;font-size: 12px&quot;&gt;小型&lt;/font&gt;" style="text;html=1;align=center;verticalAlign=middle;whiteSpace=wrap;rounded=0;shadow=0;glass=0;sketch=0;fontColor=#ffffff;fontSize=14;" vertex="1" parent="QH5kVCey-qOMAw6Wp_jd-83">
          <mxGeometry x="1.1099999999999999" y="5" width="37.78" height="20" as="geometry" />
        </mxCell>
        <mxCell id="QH5kVCey-qOMAw6Wp_jd-86" style="edgeStyle=orthogonalEdgeStyle;curved=1;rounded=0;orthogonalLoop=1;jettySize=auto;html=1;exitX=1;exitY=0.5;exitDx=0;exitDy=0;entryX=0;entryY=0.5;entryDx=0;entryDy=0;strokeColor=#028090;strokeWidth=2;fontSize=12;fontColor=#E4FDE1;labelBackgroundColor=#114B5F;" edge="1" parent="1" source="QH5kVCey-qOMAw6Wp_jd-84" target="QH5kVCey-qOMAw6Wp_jd-28">
          <mxGeometry relative="1" as="geometry" />
        </mxCell>
        <mxCell id="QH5kVCey-qOMAw6Wp_jd-87" style="edgeStyle=orthogonalEdgeStyle;curved=1;rounded=0;orthogonalLoop=1;jettySize=auto;html=1;strokeColor=#028090;strokeWidth=2;fontSize=12;fontColor=#E4FDE1;entryX=0;entryY=0.5;entryDx=0;entryDy=0;labelBackgroundColor=#114B5F;exitX=1;exitY=0.5;exitDx=0;exitDy=0;" edge="1" parent="1" source="QH5kVCey-qOMAw6Wp_jd-72" target="QH5kVCey-qOMAw6Wp_jd-28">
          <mxGeometry relative="1" as="geometry">
            <mxPoint x="100" y="260" as="targetPoint" />
            <mxPoint x="70" y="260" as="sourcePoint" />
          </mxGeometry>
        </mxCell>
        <mxCell id="QH5kVCey-qOMAw6Wp_jd-88" style="edgeStyle=orthogonalEdgeStyle;curved=1;rounded=0;orthogonalLoop=1;jettySize=auto;html=1;entryX=0;entryY=0.5;entryDx=0;entryDy=0;strokeColor=#028090;strokeWidth=2;fontSize=12;fontColor=#E4FDE1;labelBackgroundColor=#114B5F;exitX=1;exitY=0.5;exitDx=0;exitDy=0;" edge="1" parent="1" source="QH5kVCey-qOMAw6Wp_jd-69" target="QH5kVCey-qOMAw6Wp_jd-28">
          <mxGeometry relative="1" as="geometry">
            <mxPoint x="70" y="195" as="sourcePoint" />
          </mxGeometry>
        </mxCell>
        <mxCell id="QH5kVCey-qOMAw6Wp_jd-91" style="edgeStyle=orthogonalEdgeStyle;curved=1;rounded=0;orthogonalLoop=1;jettySize=auto;html=1;exitX=1;exitY=0.5;exitDx=0;exitDy=0;strokeColor=#028090;strokeWidth=2;fontSize=12;fontColor=#E4FDE1;labelBackgroundColor=#114B5F;" edge="1" parent="1" source="QH5kVCey-qOMAw6Wp_jd-66">
          <mxGeometry relative="1" as="geometry">
            <mxPoint x="40" y="340" as="targetPoint" />
          </mxGeometry>
        </mxCell>
        <mxCell id="QH5kVCey-qOMAw6Wp_jd-92" style="edgeStyle=orthogonalEdgeStyle;curved=1;rounded=0;orthogonalLoop=1;jettySize=auto;html=1;entryX=0.5;entryY=1;entryDx=0;entryDy=0;strokeColor=#028090;strokeWidth=2;fontSize=12;fontColor=#E4FDE1;labelBackgroundColor=#114B5F;" edge="1" parent="1" target="QH5kVCey-qOMAw6Wp_jd-84">
          <mxGeometry relative="1" as="geometry">
            <mxPoint x="80" y="385" as="sourcePoint" />
          </mxGeometry>
        </mxCell>
        <mxCell id="QH5kVCey-qOMAw6Wp_jd-95" style="edgeStyle=orthogonalEdgeStyle;curved=1;rounded=0;orthogonalLoop=1;jettySize=auto;html=1;strokeColor=#028090;strokeWidth=2;fontSize=12;fontColor=#E4FDE1;labelBackgroundColor=#114B5F;" edge="1" parent="1">
          <mxGeometry relative="1" as="geometry">
            <mxPoint x="40" y="180" as="targetPoint" />
            <mxPoint x="80" y="125" as="sourcePoint" />
          </mxGeometry>
        </mxCell>
        <mxCell id="QH5kVCey-qOMAw6Wp_jd-96" style="edgeStyle=orthogonalEdgeStyle;curved=1;rounded=0;orthogonalLoop=1;jettySize=auto;html=1;strokeColor=#028090;strokeWidth=2;fontSize=12;fontColor=#E4FDE1;labelBackgroundColor=#114B5F;" edge="1" parent="1" source="QH5kVCey-qOMAw6Wp_jd-39">
          <mxGeometry relative="1" as="geometry">
            <mxPoint x="40" y="180" as="targetPoint" />
          </mxGeometry>
        </mxCell>
        <mxCell id="QH5kVCey-qOMAw6Wp_jd-99" style="edgeStyle=orthogonalEdgeStyle;curved=1;rounded=0;orthogonalLoop=1;jettySize=auto;html=1;entryX=0;entryY=0.5;entryDx=0;entryDy=0;strokeColor=#028090;strokeWidth=2;fontSize=12;fontColor=#E4FDE1;exitX=0.5;exitY=0;exitDx=0;exitDy=0;labelBackgroundColor=#114B5F;" edge="1" parent="1" source="QH5kVCey-qOMAw6Wp_jd-78" target="QH5kVCey-qOMAw6Wp_jd-72">
          <mxGeometry relative="1" as="geometry" />
        </mxCell>
        <mxCell id="QH5kVCey-qOMAw6Wp_jd-100" style="edgeStyle=orthogonalEdgeStyle;curved=1;rounded=0;orthogonalLoop=1;jettySize=auto;html=1;entryX=0;entryY=0.5;entryDx=0;entryDy=0;strokeColor=#028090;strokeWidth=2;fontSize=12;fontColor=#E4FDE1;exitX=0.5;exitY=0;exitDx=0;exitDy=0;labelBackgroundColor=#114B5F;" edge="1" parent="1" source="QH5kVCey-qOMAw6Wp_jd-60" target="QH5kVCey-qOMAw6Wp_jd-73">
          <mxGeometry relative="1" as="geometry" />
        </mxCell>
        <mxCell id="QH5kVCey-qOMAw6Wp_jd-101" style="edgeStyle=orthogonalEdgeStyle;curved=1;rounded=0;orthogonalLoop=1;jettySize=auto;html=1;entryX=0;entryY=0.5;entryDx=0;entryDy=0;strokeColor=#028090;strokeWidth=2;fontSize=12;fontColor=#E4FDE1;exitX=0.5;exitY=1;exitDx=0;exitDy=0;labelBackgroundColor=#114B5F;" edge="1" parent="1" source="QH5kVCey-qOMAw6Wp_jd-57" target="QH5kVCey-qOMAw6Wp_jd-72">
          <mxGeometry relative="1" as="geometry" />
        </mxCell>
        <mxCell id="QH5kVCey-qOMAw6Wp_jd-102" style="edgeStyle=orthogonalEdgeStyle;curved=1;rounded=0;orthogonalLoop=1;jettySize=auto;html=1;entryX=0;entryY=0.5;entryDx=0;entryDy=0;strokeColor=#028090;strokeWidth=2;fontSize=12;fontColor=#E4FDE1;exitX=0.5;exitY=1;exitDx=0;exitDy=0;labelBackgroundColor=#114B5F;" edge="1" parent="1" source="QH5kVCey-qOMAw6Wp_jd-63" target="QH5kVCey-qOMAw6Wp_jd-73">
          <mxGeometry relative="1" as="geometry" />
        </mxCell>
        <mxCell id="QH5kVCey-qOMAw6Wp_jd-107" style="edgeStyle=orthogonalEdgeStyle;curved=1;rounded=0;orthogonalLoop=1;jettySize=auto;html=1;entryX=0.5;entryY=1;entryDx=0;entryDy=0;strokeColor=#028090;strokeWidth=2;fontSize=12;fontColor=#E4FDE1;exitX=1;exitY=0.5;exitDx=0;exitDy=0;labelBackgroundColor=#114B5F;" edge="1" parent="1" source="QH5kVCey-qOMAw6Wp_jd-103" target="QH5kVCey-qOMAw6Wp_jd-33">
          <mxGeometry relative="1" as="geometry">
            <mxPoint x="430" y="480" as="sourcePoint" />
          </mxGeometry>
        </mxCell>
        <mxCell id="QH5kVCey-qOMAw6Wp_jd-111" value="" style="group;fontColor=#ffffff;rounded=0;imageAspect=1;" vertex="1" connectable="0" parent="1">
          <mxGeometry x="680" y="520" width="80" height="40" as="geometry" />
        </mxCell>
        <mxCell id="QH5kVCey-qOMAw6Wp_jd-105" value="" style="rounded=1;whiteSpace=wrap;html=1;fontColor=#ffffff;strokeWidth=1;strokeColor=#006EAF;fillColor=#1BA1E2;" vertex="1" parent="QH5kVCey-qOMAw6Wp_jd-111">
          <mxGeometry width="80" height="40" as="geometry" />
        </mxCell>
        <mxCell id="QH5kVCey-qOMAw6Wp_jd-106" value="&lt;font style=&quot;font-size: 14px&quot;&gt;人工&lt;/font&gt;" style="text;html=1;align=center;verticalAlign=middle;whiteSpace=wrap;rounded=0;fontColor=#ffffff;aspect=fixed;" vertex="1" parent="QH5kVCey-qOMAw6Wp_jd-111">
          <mxGeometry x="5" y="10" width="70" height="20" as="geometry" />
        </mxCell>
        <mxCell id="QH5kVCey-qOMAw6Wp_jd-112" style="edgeStyle=orthogonalEdgeStyle;curved=1;rounded=0;orthogonalLoop=1;jettySize=auto;html=1;entryX=0.5;entryY=1;entryDx=0;entryDy=0;strokeColor=#028090;strokeWidth=2;fontSize=12;fontColor=#E4FDE1;labelBackgroundColor=#114B5F;" edge="1" parent="1" source="QH5kVCey-qOMAw6Wp_jd-105" target="QH5kVCey-qOMAw6Wp_jd-33">
          <mxGeometry relative="1" as="geometry" />
        </mxCell>
        <mxCell id="QH5kVCey-qOMAw6Wp_jd-113" value="" style="group;fontColor=#E4FDE1;" vertex="1" connectable="0" parent="1">
          <mxGeometry x="360" y="520" width="80" height="40" as="geometry" />
        </mxCell>
        <mxCell id="QH5kVCey-qOMAw6Wp_jd-103" value="" style="rounded=1;whiteSpace=wrap;html=1;strokeColor=#006EAF;fontColor=#ffffff;strokeWidth=1;fillColor=#1ba1e2;" vertex="1" parent="QH5kVCey-qOMAw6Wp_jd-113">
          <mxGeometry width="80" height="40" as="geometry" />
        </mxCell>
        <mxCell id="QH5kVCey-qOMAw6Wp_jd-104" value="&lt;font style=&quot;font-size: 14px&quot;&gt;自然&lt;/font&gt;" style="text;html=1;align=center;verticalAlign=middle;whiteSpace=wrap;rounded=0;fontColor=#E4FDE1;aspect=fixed;" vertex="1" parent="QH5kVCey-qOMAw6Wp_jd-113">
          <mxGeometry x="5" y="10" width="70" height="20" as="geometry" />
        </mxCell>
        <mxCell id="QH5kVCey-qOMAw6Wp_jd-114" value="" style="group;fontColor=#ffffff;fillColor=#1ba1e2;strokeColor=#006EAF;rounded=1;" vertex="1" connectable="0" parent="1">
          <mxGeometry x="220" y="525" width="60" height="30" as="geometry" />
        </mxCell>
        <mxCell id="QH5kVCey-qOMAw6Wp_jd-115" value="" style="rounded=1;whiteSpace=wrap;html=1;shadow=0;glass=0;sketch=0;strokeWidth=1;fontColor=#ffffff;fillColor=#FF8000;strokeColor=#FF8000;" vertex="1" parent="QH5kVCey-qOMAw6Wp_jd-114">
          <mxGeometry width="60" height="30" as="geometry" />
        </mxCell>
        <mxCell id="QH5kVCey-qOMAw6Wp_jd-116" value="&lt;span style=&quot;font-size: 12px&quot;&gt;&lt;font color=&quot;#ffffff&quot;&gt;地形&lt;/font&gt;&lt;/span&gt;" style="text;html=1;strokeColor=none;fillColor=none;align=center;verticalAlign=middle;whiteSpace=wrap;rounded=0;shadow=0;glass=0;sketch=0;fontColor=#E4FDE1;fontSize=14;" vertex="1" parent="QH5kVCey-qOMAw6Wp_jd-114">
          <mxGeometry y="5" width="60" height="20" as="geometry" />
        </mxCell>
        <mxCell id="QH5kVCey-qOMAw6Wp_jd-117" value="" style="group;fontColor=#E4FDE1;" vertex="1" connectable="0" parent="1">
          <mxGeometry x="200" y="720" width="80" height="30" as="geometry" />
        </mxCell>
        <mxCell id="QH5kVCey-qOMAw6Wp_jd-118" value="" style="rounded=1;whiteSpace=wrap;html=1;shadow=0;glass=0;sketch=0;strokeWidth=1;fontColor=#ffffff;fillColor=#FF8000;strokeColor=#FF8000;" vertex="1" parent="QH5kVCey-qOMAw6Wp_jd-117">
          <mxGeometry width="80" height="30" as="geometry" />
        </mxCell>
        <mxCell id="QH5kVCey-qOMAw6Wp_jd-119" value="&lt;font style=&quot;font-size: 12px&quot; color=&quot;#ffffff&quot;&gt;水体&lt;/font&gt;" style="text;html=1;strokeColor=none;fillColor=none;align=center;verticalAlign=middle;whiteSpace=wrap;rounded=0;shadow=0;glass=0;sketch=0;fontColor=#E4FDE1;fontSize=14;" vertex="1" parent="QH5kVCey-qOMAw6Wp_jd-117">
          <mxGeometry x="4.446535947712419" y="5" width="71.11111111111111" height="20" as="geometry" />
        </mxCell>
        <mxCell id="QH5kVCey-qOMAw6Wp_jd-120" value="" style="group;fontColor=#E4FDE1;" vertex="1" connectable="0" parent="1">
          <mxGeometry x="200.01" y="620" width="80" height="30" as="geometry" />
        </mxCell>
        <mxCell id="QH5kVCey-qOMAw6Wp_jd-121" value="" style="rounded=1;whiteSpace=wrap;html=1;shadow=0;glass=0;sketch=0;strokeWidth=1;fontColor=#ffffff;fillColor=#FF8000;strokeColor=#FF8000;" vertex="1" parent="QH5kVCey-qOMAw6Wp_jd-120">
          <mxGeometry width="80" height="30" as="geometry" />
        </mxCell>
        <mxCell id="QH5kVCey-qOMAw6Wp_jd-122" value="&lt;font style=&quot;font-size: 12px&quot; color=&quot;#ffffff&quot;&gt;天空&lt;/font&gt;" style="text;html=1;strokeColor=none;fillColor=none;align=center;verticalAlign=middle;whiteSpace=wrap;rounded=0;shadow=0;glass=0;sketch=0;fontColor=#E4FDE1;fontSize=14;" vertex="1" parent="QH5kVCey-qOMAw6Wp_jd-120">
          <mxGeometry x="4.446535947712419" y="5" width="71.11111111111111" height="20" as="geometry" />
        </mxCell>
        <mxCell id="QH5kVCey-qOMAw6Wp_jd-123" value="" style="group;fontColor=#E4FDE1;" vertex="1" connectable="0" parent="1">
          <mxGeometry x="360.01" y="760" width="80" height="30" as="geometry" />
        </mxCell>
        <mxCell id="QH5kVCey-qOMAw6Wp_jd-124" value="" style="rounded=1;whiteSpace=wrap;html=1;shadow=0;glass=0;sketch=0;strokeWidth=1;fontColor=#ffffff;fillColor=#FF8000;strokeColor=#FF8000;" vertex="1" parent="QH5kVCey-qOMAw6Wp_jd-123">
          <mxGeometry width="80" height="30" as="geometry" />
        </mxCell>
        <mxCell id="QH5kVCey-qOMAw6Wp_jd-125" value="&lt;font style=&quot;font-size: 12px&quot; color=&quot;#ffffff&quot;&gt;植物&lt;/font&gt;" style="text;html=1;strokeColor=none;fillColor=none;align=center;verticalAlign=middle;whiteSpace=wrap;rounded=0;shadow=0;glass=0;sketch=0;fontColor=#E4FDE1;fontSize=14;" vertex="1" parent="QH5kVCey-qOMAw6Wp_jd-123">
          <mxGeometry x="4.446535947712419" y="5" width="71.11111111111111" height="20" as="geometry" />
        </mxCell>
        <mxCell id="QH5kVCey-qOMAw6Wp_jd-227" style="edgeStyle=orthogonalEdgeStyle;curved=1;rounded=0;orthogonalLoop=1;jettySize=auto;html=1;entryX=0.5;entryY=1;entryDx=0;entryDy=0;strokeColor=#028090;strokeWidth=2;fontSize=12;fontColor=#E4FDE1;labelBackgroundColor=#114B5F;" edge="1" parent="QH5kVCey-qOMAw6Wp_jd-123" target="QH5kVCey-qOMAw6Wp_jd-124">
          <mxGeometry relative="1" as="geometry">
            <mxPoint x="39.99000000000001" y="30" as="sourcePoint" />
          </mxGeometry>
        </mxCell>
        <mxCell id="QH5kVCey-qOMAw6Wp_jd-129" value="" style="group;fontColor=#E4FDE1;" vertex="1" connectable="0" parent="1">
          <mxGeometry x="115" y="525" width="50.01" height="30" as="geometry" />
        </mxCell>
        <mxCell id="QH5kVCey-qOMAw6Wp_jd-130" value="" style="rounded=1;whiteSpace=wrap;html=1;shadow=0;glass=0;sketch=0;strokeWidth=1;fontColor=#ffffff;fillColor=#FF8000;strokeColor=#FF8000;" vertex="1" parent="QH5kVCey-qOMAw6Wp_jd-129">
          <mxGeometry width="49.997500624843795" height="30" as="geometry" />
        </mxCell>
        <mxCell id="QH5kVCey-qOMAw6Wp_jd-131" value="&lt;font style=&quot;font-size: 12px&quot;&gt;&lt;font color=&quot;#ffffff&quot;&gt;平地&lt;/font&gt;&lt;br&gt;&lt;/font&gt;" style="text;html=1;strokeColor=none;fillColor=none;align=center;verticalAlign=middle;whiteSpace=wrap;rounded=0;shadow=0;glass=0;sketch=0;fontColor=#E4FDE1;fontSize=14;" vertex="1" parent="QH5kVCey-qOMAw6Wp_jd-129">
          <mxGeometry x="1.3874306423394152" y="5" width="47.22263934016496" height="20" as="geometry" />
        </mxCell>
        <mxCell id="QH5kVCey-qOMAw6Wp_jd-137" style="edgeStyle=orthogonalEdgeStyle;curved=1;rounded=0;orthogonalLoop=1;jettySize=auto;html=1;entryX=0;entryY=0.5;entryDx=0;entryDy=0;strokeColor=#028090;strokeWidth=2;fontSize=12;fontColor=#E4FDE1;labelBackgroundColor=#114B5F;" edge="1" parent="1" source="QH5kVCey-qOMAw6Wp_jd-115" target="QH5kVCey-qOMAw6Wp_jd-103">
          <mxGeometry relative="1" as="geometry" />
        </mxCell>
        <mxCell id="QH5kVCey-qOMAw6Wp_jd-138" value="" style="group;fontColor=#E4FDE1;fillColor=#ffffff;" vertex="1" connectable="0" parent="1">
          <mxGeometry x="-35" y="525" width="35" height="30" as="geometry" />
        </mxCell>
        <mxCell id="QH5kVCey-qOMAw6Wp_jd-139" value="" style="rounded=1;whiteSpace=wrap;html=1;shadow=0;glass=0;sketch=0;strokeWidth=1;fontSize=14;fontColor=#E4FDE1;strokeColor=#028090;" vertex="1" parent="QH5kVCey-qOMAw6Wp_jd-138">
          <mxGeometry width="35" height="30" as="geometry" />
        </mxCell>
        <mxCell id="QH5kVCey-qOMAw6Wp_jd-140" value="&lt;font color=&quot;#3399ff&quot; style=&quot;font-size: 12px&quot;&gt;沙&lt;/font&gt;" style="text;html=1;strokeColor=none;align=center;verticalAlign=middle;whiteSpace=wrap;rounded=0;shadow=0;glass=0;sketch=0;fontSize=12;fontColor=#E4FDE1;fillColor=#ffffff;" vertex="1" parent="QH5kVCey-qOMAw6Wp_jd-138">
          <mxGeometry x="3.5" y="5" width="28" height="20" as="geometry" />
        </mxCell>
        <mxCell id="QH5kVCey-qOMAw6Wp_jd-141" value="" style="group;fontColor=#E4FDE1;" vertex="1" connectable="0" parent="1">
          <mxGeometry x="480" y="240" width="80" height="40" as="geometry" />
        </mxCell>
        <mxCell id="QH5kVCey-qOMAw6Wp_jd-33" value="" style="rounded=1;whiteSpace=wrap;html=1;fillColor=#1ba1e2;strokeColor=#006EAF;fontColor=#ffffff;strokeWidth=1;" vertex="1" parent="QH5kVCey-qOMAw6Wp_jd-141">
          <mxGeometry width="80" height="40" as="geometry" />
        </mxCell>
        <mxCell id="QH5kVCey-qOMAw6Wp_jd-34" value="&lt;font style=&quot;font-size: 14px&quot;&gt;静态&lt;/font&gt;" style="text;html=1;align=center;verticalAlign=middle;whiteSpace=wrap;rounded=0;fontColor=#E4FDE1;aspect=fixed;" vertex="1" parent="QH5kVCey-qOMAw6Wp_jd-141">
          <mxGeometry x="5" y="10" width="70" height="20" as="geometry" />
        </mxCell>
        <mxCell id="QH5kVCey-qOMAw6Wp_jd-142" value="" style="group;fontColor=#E4FDE1;" vertex="1" connectable="0" parent="1">
          <mxGeometry x="240" y="240" width="80" height="40" as="geometry" />
        </mxCell>
        <mxCell id="QH5kVCey-qOMAw6Wp_jd-31" value="" style="rounded=1;whiteSpace=wrap;html=1;fillColor=#1ba1e2;strokeColor=#006EAF;fontColor=#ffffff;strokeWidth=1;" vertex="1" parent="QH5kVCey-qOMAw6Wp_jd-142">
          <mxGeometry width="80" height="40" as="geometry" />
        </mxCell>
        <mxCell id="QH5kVCey-qOMAw6Wp_jd-32" value="&lt;font style=&quot;font-size: 14px&quot;&gt;动态&lt;/font&gt;" style="text;html=1;align=center;verticalAlign=middle;whiteSpace=wrap;rounded=0;fontColor=#E4FDE1;aspect=fixed;" vertex="1" parent="QH5kVCey-qOMAw6Wp_jd-142">
          <mxGeometry x="5" y="10" width="70" height="20" as="geometry" />
        </mxCell>
        <mxCell id="QH5kVCey-qOMAw6Wp_jd-144" value="" style="group;fontColor=#E4FDE1;fillColor=#ffffff;" vertex="1" connectable="0" parent="1">
          <mxGeometry x="20" y="470" width="35" height="30" as="geometry" />
        </mxCell>
        <mxCell id="QH5kVCey-qOMAw6Wp_jd-145" value="" style="rounded=1;whiteSpace=wrap;html=1;shadow=0;glass=0;sketch=0;strokeWidth=1;fontSize=14;fontColor=#E4FDE1;strokeColor=#028090;" vertex="1" parent="QH5kVCey-qOMAw6Wp_jd-144">
          <mxGeometry width="35" height="30" as="geometry" />
        </mxCell>
        <mxCell id="QH5kVCey-qOMAw6Wp_jd-146" value="&lt;font color=&quot;#3399ff&quot; style=&quot;font-size: 12px&quot;&gt;土壤&lt;/font&gt;" style="text;html=1;strokeColor=none;align=center;verticalAlign=middle;whiteSpace=wrap;rounded=0;shadow=0;glass=0;sketch=0;fontSize=12;fontColor=#E4FDE1;fillColor=#ffffff;" vertex="1" parent="QH5kVCey-qOMAw6Wp_jd-144">
          <mxGeometry x="3.5" y="5" width="28" height="20" as="geometry" />
        </mxCell>
        <mxCell id="QH5kVCey-qOMAw6Wp_jd-154" style="edgeStyle=orthogonalEdgeStyle;curved=1;rounded=0;orthogonalLoop=1;jettySize=auto;html=1;entryX=0;entryY=0.5;entryDx=0;entryDy=0;strokeColor=#028090;strokeWidth=2;fontSize=12;fontColor=#E4FDE1;labelBackgroundColor=#114B5F;" edge="1" parent="1" source="QH5kVCey-qOMAw6Wp_jd-130" target="QH5kVCey-qOMAw6Wp_jd-115">
          <mxGeometry relative="1" as="geometry" />
        </mxCell>
        <mxCell id="QH5kVCey-qOMAw6Wp_jd-158" value="" style="group;fontColor=#E4FDE1;fillColor=#ffffff;" vertex="1" connectable="0" parent="1">
          <mxGeometry x="22.5" y="570" width="35" height="30" as="geometry" />
        </mxCell>
        <mxCell id="QH5kVCey-qOMAw6Wp_jd-159" value="" style="rounded=1;whiteSpace=wrap;html=1;shadow=0;glass=0;sketch=0;strokeWidth=1;fontSize=14;fontColor=#E4FDE1;strokeColor=#028090;" vertex="1" parent="QH5kVCey-qOMAw6Wp_jd-158">
          <mxGeometry width="35" height="30" as="geometry" />
        </mxCell>
        <mxCell id="QH5kVCey-qOMAw6Wp_jd-160" value="&lt;font color=&quot;#3399ff&quot; style=&quot;font-size: 12px&quot;&gt;石头&lt;/font&gt;" style="text;html=1;strokeColor=none;align=center;verticalAlign=middle;whiteSpace=wrap;rounded=0;shadow=0;glass=0;sketch=0;fontSize=12;fontColor=#E4FDE1;fillColor=#ffffff;" vertex="1" parent="QH5kVCey-qOMAw6Wp_jd-158">
          <mxGeometry x="3.5" y="5" width="28" height="20" as="geometry" />
        </mxCell>
        <mxCell id="QH5kVCey-qOMAw6Wp_jd-161" style="edgeStyle=orthogonalEdgeStyle;curved=1;rounded=0;orthogonalLoop=1;jettySize=auto;html=1;entryX=0.5;entryY=1;entryDx=0;entryDy=0;strokeColor=#028090;strokeWidth=2;fontSize=12;fontColor=#E4FDE1;labelBackgroundColor=#114B5F;" edge="1" parent="1" source="QH5kVCey-qOMAw6Wp_jd-118" target="QH5kVCey-qOMAw6Wp_jd-103">
          <mxGeometry relative="1" as="geometry" />
        </mxCell>
        <mxCell id="QH5kVCey-qOMAw6Wp_jd-162" style="edgeStyle=orthogonalEdgeStyle;curved=1;rounded=0;orthogonalLoop=1;jettySize=auto;html=1;strokeColor=#028090;strokeWidth=2;fontSize=12;fontColor=#E4FDE1;labelBackgroundColor=#114B5F;" edge="1" parent="1" source="QH5kVCey-qOMAw6Wp_jd-124">
          <mxGeometry relative="1" as="geometry">
            <mxPoint x="400" y="560" as="targetPoint" />
          </mxGeometry>
        </mxCell>
        <mxCell id="QH5kVCey-qOMAw6Wp_jd-163" style="edgeStyle=orthogonalEdgeStyle;curved=1;rounded=0;orthogonalLoop=1;jettySize=auto;html=1;strokeColor=#028090;strokeWidth=2;fontSize=12;fontColor=#E4FDE1;labelBackgroundColor=#114B5F;exitX=1;exitY=0.5;exitDx=0;exitDy=0;" edge="1" parent="1" source="QH5kVCey-qOMAw6Wp_jd-121">
          <mxGeometry relative="1" as="geometry">
            <mxPoint x="400" y="560" as="targetPoint" />
            <mxPoint x="290" y="635" as="sourcePoint" />
          </mxGeometry>
        </mxCell>
        <mxCell id="QH5kVCey-qOMAw6Wp_jd-164" value="" style="group;fontColor=#E4FDE1;fillColor=#ffffff;" vertex="1" connectable="0" parent="1">
          <mxGeometry x="165.01" y="440" width="35" height="30" as="geometry" />
        </mxCell>
        <mxCell id="QH5kVCey-qOMAw6Wp_jd-165" value="" style="rounded=1;whiteSpace=wrap;html=1;shadow=0;glass=0;sketch=0;strokeWidth=1;fontSize=14;fontColor=#E4FDE1;strokeColor=#028090;" vertex="1" parent="QH5kVCey-qOMAw6Wp_jd-164">
          <mxGeometry width="35" height="30" as="geometry" />
        </mxCell>
        <mxCell id="QH5kVCey-qOMAw6Wp_jd-166" value="&lt;font color=&quot;#3399ff&quot; style=&quot;font-size: 12px&quot;&gt;山地&lt;/font&gt;" style="text;html=1;strokeColor=none;align=center;verticalAlign=middle;whiteSpace=wrap;rounded=0;shadow=0;glass=0;sketch=0;fontSize=12;fontColor=#E4FDE1;fillColor=#ffffff;" vertex="1" parent="QH5kVCey-qOMAw6Wp_jd-164">
          <mxGeometry x="3.5" y="5" width="28" height="20" as="geometry" />
        </mxCell>
        <mxCell id="QH5kVCey-qOMAw6Wp_jd-167" value="" style="group;fontColor=#E4FDE1;fillColor=#ffffff;" vertex="1" connectable="0" parent="1">
          <mxGeometry x="230" y="400" width="40" height="30" as="geometry" />
        </mxCell>
        <mxCell id="QH5kVCey-qOMAw6Wp_jd-168" value="" style="rounded=1;whiteSpace=wrap;html=1;shadow=0;glass=0;sketch=0;strokeWidth=1;fontSize=14;fontColor=#E4FDE1;strokeColor=#028090;" vertex="1" parent="QH5kVCey-qOMAw6Wp_jd-167">
          <mxGeometry width="40" height="30" as="geometry" />
        </mxCell>
        <mxCell id="QH5kVCey-qOMAw6Wp_jd-169" value="&lt;font color=&quot;#3399ff&quot; style=&quot;font-size: 12px&quot;&gt;田野&lt;/font&gt;" style="text;html=1;strokeColor=none;align=center;verticalAlign=middle;whiteSpace=wrap;rounded=0;shadow=0;glass=0;sketch=0;fontSize=12;fontColor=#E4FDE1;fillColor=#ffffff;" vertex="1" parent="QH5kVCey-qOMAw6Wp_jd-167">
          <mxGeometry x="4" y="5" width="32" height="20" as="geometry" />
        </mxCell>
        <mxCell id="QH5kVCey-qOMAw6Wp_jd-170" value="" style="group;fontColor=#E4FDE1;fillColor=#ffffff;" vertex="1" connectable="0" parent="1">
          <mxGeometry x="300" y="440" width="35" height="30" as="geometry" />
        </mxCell>
        <mxCell id="QH5kVCey-qOMAw6Wp_jd-171" value="" style="rounded=1;whiteSpace=wrap;html=1;shadow=0;glass=0;sketch=0;strokeWidth=1;fontSize=14;fontColor=#E4FDE1;strokeColor=#028090;" vertex="1" parent="QH5kVCey-qOMAw6Wp_jd-170">
          <mxGeometry width="35" height="30" as="geometry" />
        </mxCell>
        <mxCell id="QH5kVCey-qOMAw6Wp_jd-172" value="&lt;font color=&quot;#3399ff&quot; style=&quot;font-size: 12px&quot;&gt;丘陵&lt;/font&gt;" style="text;html=1;strokeColor=none;align=center;verticalAlign=middle;whiteSpace=wrap;rounded=0;shadow=0;glass=0;sketch=0;fontSize=12;fontColor=#E4FDE1;fillColor=#ffffff;" vertex="1" parent="QH5kVCey-qOMAw6Wp_jd-170">
          <mxGeometry x="3.5" y="5" width="28" height="20" as="geometry" />
        </mxCell>
        <mxCell id="QH5kVCey-qOMAw6Wp_jd-173" style="edgeStyle=orthogonalEdgeStyle;curved=1;rounded=0;orthogonalLoop=1;jettySize=auto;html=1;entryX=0.5;entryY=0;entryDx=0;entryDy=0;strokeColor=#028090;strokeWidth=2;fontSize=12;fontColor=#E4FDE1;labelBackgroundColor=#114B5F;" edge="1" parent="1" source="QH5kVCey-qOMAw6Wp_jd-165" target="QH5kVCey-qOMAw6Wp_jd-115">
          <mxGeometry relative="1" as="geometry" />
        </mxCell>
        <mxCell id="QH5kVCey-qOMAw6Wp_jd-174" style="edgeStyle=orthogonalEdgeStyle;curved=1;rounded=0;orthogonalLoop=1;jettySize=auto;html=1;entryX=0.5;entryY=0;entryDx=0;entryDy=0;strokeColor=#028090;strokeWidth=2;fontSize=12;fontColor=#E4FDE1;labelBackgroundColor=#114B5F;" edge="1" parent="1" source="QH5kVCey-qOMAw6Wp_jd-171" target="QH5kVCey-qOMAw6Wp_jd-115">
          <mxGeometry relative="1" as="geometry" />
        </mxCell>
        <mxCell id="QH5kVCey-qOMAw6Wp_jd-176" style="edgeStyle=orthogonalEdgeStyle;curved=1;rounded=0;orthogonalLoop=1;jettySize=auto;html=1;entryX=0.5;entryY=0;entryDx=0;entryDy=0;strokeColor=#028090;strokeWidth=2;fontSize=12;fontColor=#E4FDE1;labelBackgroundColor=#114B5F;" edge="1" parent="1" source="QH5kVCey-qOMAw6Wp_jd-168" target="QH5kVCey-qOMAw6Wp_jd-115">
          <mxGeometry relative="1" as="geometry" />
        </mxCell>
        <mxCell id="QH5kVCey-qOMAw6Wp_jd-177" style="edgeStyle=orthogonalEdgeStyle;curved=1;rounded=0;orthogonalLoop=1;jettySize=auto;html=1;entryX=0;entryY=0.5;entryDx=0;entryDy=0;strokeColor=#028090;strokeWidth=2;fontSize=12;fontColor=#E4FDE1;exitX=0.5;exitY=1;exitDx=0;exitDy=0;labelBackgroundColor=#114B5F;" edge="1" parent="1" source="QH5kVCey-qOMAw6Wp_jd-145" target="QH5kVCey-qOMAw6Wp_jd-131">
          <mxGeometry relative="1" as="geometry" />
        </mxCell>
        <mxCell id="QH5kVCey-qOMAw6Wp_jd-181" style="edgeStyle=orthogonalEdgeStyle;curved=1;rounded=0;orthogonalLoop=1;jettySize=auto;html=1;entryX=0;entryY=0.5;entryDx=0;entryDy=0;strokeColor=#028090;strokeWidth=2;fontSize=12;fontColor=#E4FDE1;exitX=1;exitY=0.5;exitDx=0;exitDy=0;labelBackgroundColor=#114B5F;" edge="1" parent="1" source="QH5kVCey-qOMAw6Wp_jd-139" target="QH5kVCey-qOMAw6Wp_jd-131">
          <mxGeometry relative="1" as="geometry" />
        </mxCell>
        <mxCell id="QH5kVCey-qOMAw6Wp_jd-182" style="edgeStyle=orthogonalEdgeStyle;curved=1;rounded=0;orthogonalLoop=1;jettySize=auto;html=1;entryX=0;entryY=0.5;entryDx=0;entryDy=0;strokeColor=#028090;strokeWidth=2;fontSize=12;fontColor=#E4FDE1;exitX=0.5;exitY=0;exitDx=0;exitDy=0;labelBackgroundColor=#114B5F;" edge="1" parent="1" source="QH5kVCey-qOMAw6Wp_jd-159" target="QH5kVCey-qOMAw6Wp_jd-130">
          <mxGeometry relative="1" as="geometry" />
        </mxCell>
        <mxCell id="QH5kVCey-qOMAw6Wp_jd-184" value="" style="group;fontColor=#E4FDE1;fillColor=#ffffff;" vertex="1" connectable="0" parent="1">
          <mxGeometry x="340" y="830" width="35" height="30" as="geometry" />
        </mxCell>
        <mxCell id="QH5kVCey-qOMAw6Wp_jd-185" value="" style="rounded=1;whiteSpace=wrap;html=1;shadow=0;glass=0;sketch=0;strokeWidth=1;fontSize=14;fontColor=#E4FDE1;strokeColor=#028090;" vertex="1" parent="QH5kVCey-qOMAw6Wp_jd-184">
          <mxGeometry width="35" height="30" as="geometry" />
        </mxCell>
        <mxCell id="QH5kVCey-qOMAw6Wp_jd-186" value="&lt;font color=&quot;#3399ff&quot; style=&quot;font-size: 12px&quot;&gt;乔木&lt;/font&gt;" style="text;html=1;strokeColor=none;align=center;verticalAlign=middle;whiteSpace=wrap;rounded=0;shadow=0;glass=0;sketch=0;fontSize=12;fontColor=#E4FDE1;fillColor=#ffffff;" vertex="1" parent="QH5kVCey-qOMAw6Wp_jd-184">
          <mxGeometry x="3.5" y="5" width="28" height="20" as="geometry" />
        </mxCell>
        <mxCell id="QH5kVCey-qOMAw6Wp_jd-187" value="" style="group;fontColor=#E4FDE1;fillColor=#ffffff;" vertex="1" connectable="0" parent="1">
          <mxGeometry x="430" y="830" width="35" height="30" as="geometry" />
        </mxCell>
        <mxCell id="QH5kVCey-qOMAw6Wp_jd-188" value="" style="rounded=1;whiteSpace=wrap;html=1;shadow=0;glass=0;sketch=0;strokeWidth=1;fontSize=14;fontColor=#E4FDE1;strokeColor=#028090;" vertex="1" parent="QH5kVCey-qOMAw6Wp_jd-187">
          <mxGeometry width="35" height="30" as="geometry" />
        </mxCell>
        <mxCell id="QH5kVCey-qOMAw6Wp_jd-189" value="&lt;font color=&quot;#3399ff&quot; style=&quot;font-size: 12px&quot;&gt;灌木&lt;/font&gt;" style="text;html=1;strokeColor=none;align=center;verticalAlign=middle;whiteSpace=wrap;rounded=0;shadow=0;glass=0;sketch=0;fontSize=12;fontColor=#E4FDE1;fillColor=#ffffff;" vertex="1" parent="QH5kVCey-qOMAw6Wp_jd-187">
          <mxGeometry x="3.5" y="5" width="28" height="20" as="geometry" />
        </mxCell>
        <mxCell id="QH5kVCey-qOMAw6Wp_jd-190" value="" style="group;fontColor=#E4FDE1;fillColor=#ffffff;" vertex="1" connectable="0" parent="1">
          <mxGeometry x="340" y="870" width="35" height="30" as="geometry" />
        </mxCell>
        <mxCell id="QH5kVCey-qOMAw6Wp_jd-191" value="" style="rounded=1;whiteSpace=wrap;html=1;shadow=0;glass=0;sketch=0;strokeWidth=1;fontSize=14;fontColor=#E4FDE1;strokeColor=#028090;" vertex="1" parent="QH5kVCey-qOMAw6Wp_jd-190">
          <mxGeometry width="35" height="30" as="geometry" />
        </mxCell>
        <mxCell id="QH5kVCey-qOMAw6Wp_jd-192" value="&lt;font color=&quot;#3399ff&quot; style=&quot;font-size: 12px&quot;&gt;花&lt;/font&gt;" style="text;html=1;strokeColor=none;align=center;verticalAlign=middle;whiteSpace=wrap;rounded=0;shadow=0;glass=0;sketch=0;fontSize=12;fontColor=#E4FDE1;fillColor=#ffffff;" vertex="1" parent="QH5kVCey-qOMAw6Wp_jd-190">
          <mxGeometry x="3.5" y="5" width="28" height="20" as="geometry" />
        </mxCell>
        <mxCell id="QH5kVCey-qOMAw6Wp_jd-193" value="" style="group;fontColor=#E4FDE1;fillColor=#ffffff;" vertex="1" connectable="0" parent="1">
          <mxGeometry x="430" y="870" width="35" height="30" as="geometry" />
        </mxCell>
        <mxCell id="QH5kVCey-qOMAw6Wp_jd-194" value="" style="rounded=1;whiteSpace=wrap;html=1;shadow=0;glass=0;sketch=0;strokeWidth=1;fontSize=14;fontColor=#E4FDE1;strokeColor=#028090;" vertex="1" parent="QH5kVCey-qOMAw6Wp_jd-193">
          <mxGeometry width="35" height="30" as="geometry" />
        </mxCell>
        <mxCell id="QH5kVCey-qOMAw6Wp_jd-195" value="&lt;font color=&quot;#3399ff&quot; style=&quot;font-size: 12px&quot;&gt;草&lt;/font&gt;" style="text;html=1;strokeColor=none;align=center;verticalAlign=middle;whiteSpace=wrap;rounded=0;shadow=0;glass=0;sketch=0;fontSize=12;fontColor=#E4FDE1;fillColor=#ffffff;" vertex="1" parent="QH5kVCey-qOMAw6Wp_jd-193">
          <mxGeometry x="3.5" y="5" width="28" height="20" as="geometry" />
        </mxCell>
        <mxCell id="QH5kVCey-qOMAw6Wp_jd-202" value="" style="group;fontColor=#E4FDE1;fillColor=#ffffff;" vertex="1" connectable="0" parent="1">
          <mxGeometry x="100" y="620" width="35" height="30" as="geometry" />
        </mxCell>
        <mxCell id="QH5kVCey-qOMAw6Wp_jd-203" value="" style="rounded=1;whiteSpace=wrap;html=1;shadow=0;glass=0;sketch=0;strokeWidth=1;fontSize=14;fontColor=#E4FDE1;strokeColor=#028090;" vertex="1" parent="QH5kVCey-qOMAw6Wp_jd-202">
          <mxGeometry width="35" height="30" as="geometry" />
        </mxCell>
        <mxCell id="QH5kVCey-qOMAw6Wp_jd-204" value="&lt;font color=&quot;#3399ff&quot; style=&quot;font-size: 12px&quot;&gt;天空&lt;/font&gt;" style="text;html=1;strokeColor=none;align=center;verticalAlign=middle;whiteSpace=wrap;rounded=0;shadow=0;glass=0;sketch=0;fontSize=12;fontColor=#E4FDE1;fillColor=#ffffff;" vertex="1" parent="QH5kVCey-qOMAw6Wp_jd-202">
          <mxGeometry x="3.5" y="5" width="28" height="20" as="geometry" />
        </mxCell>
        <mxCell id="QH5kVCey-qOMAw6Wp_jd-205" style="edgeStyle=orthogonalEdgeStyle;curved=1;rounded=0;orthogonalLoop=1;jettySize=auto;html=1;entryX=0;entryY=0.5;entryDx=0;entryDy=0;strokeColor=#028090;strokeWidth=2;fontSize=12;fontColor=#E4FDE1;exitX=1;exitY=0.5;exitDx=0;exitDy=0;labelBackgroundColor=#114B5F;" edge="1" parent="1" source="QH5kVCey-qOMAw6Wp_jd-203" target="QH5kVCey-qOMAw6Wp_jd-121">
          <mxGeometry relative="1" as="geometry">
            <mxPoint x="140" y="635" as="sourcePoint" />
          </mxGeometry>
        </mxCell>
        <mxCell id="QH5kVCey-qOMAw6Wp_jd-206" style="edgeStyle=orthogonalEdgeStyle;curved=1;rounded=0;orthogonalLoop=1;jettySize=auto;html=1;entryX=0.5;entryY=1;entryDx=0;entryDy=0;strokeColor=#028090;strokeWidth=2;fontSize=12;fontColor=#E4FDE1;exitX=0;exitY=0.5;exitDx=0;exitDy=0;labelBackgroundColor=#114B5F;" edge="1" parent="1" source="QH5kVCey-qOMAw6Wp_jd-188" target="QH5kVCey-qOMAw6Wp_jd-124">
          <mxGeometry relative="1" as="geometry" />
        </mxCell>
        <mxCell id="QH5kVCey-qOMAw6Wp_jd-207" style="edgeStyle=orthogonalEdgeStyle;curved=1;rounded=0;orthogonalLoop=1;jettySize=auto;html=1;strokeColor=#028090;strokeWidth=2;fontSize=12;fontColor=#E4FDE1;entryX=0.5;entryY=1;entryDx=0;entryDy=0;exitX=0;exitY=0.5;exitDx=0;exitDy=0;labelBackgroundColor=#114B5F;" edge="1" parent="1" source="QH5kVCey-qOMAw6Wp_jd-194" target="QH5kVCey-qOMAw6Wp_jd-124">
          <mxGeometry relative="1" as="geometry">
            <mxPoint x="360" y="780" as="targetPoint" />
          </mxGeometry>
        </mxCell>
        <mxCell id="QH5kVCey-qOMAw6Wp_jd-208" style="edgeStyle=orthogonalEdgeStyle;curved=1;rounded=0;orthogonalLoop=1;jettySize=auto;html=1;entryX=0.5;entryY=1;entryDx=0;entryDy=0;strokeColor=#028090;strokeWidth=2;fontSize=12;fontColor=#E4FDE1;exitX=1;exitY=0.5;exitDx=0;exitDy=0;labelBackgroundColor=#114B5F;" edge="1" parent="1" source="QH5kVCey-qOMAw6Wp_jd-191" target="QH5kVCey-qOMAw6Wp_jd-124">
          <mxGeometry relative="1" as="geometry" />
        </mxCell>
        <mxCell id="QH5kVCey-qOMAw6Wp_jd-209" style="edgeStyle=orthogonalEdgeStyle;curved=1;rounded=0;orthogonalLoop=1;jettySize=auto;html=1;entryX=0.5;entryY=1;entryDx=0;entryDy=0;strokeColor=#028090;strokeWidth=2;fontSize=12;fontColor=#E4FDE1;exitX=1;exitY=0.5;exitDx=0;exitDy=0;labelBackgroundColor=#114B5F;" edge="1" parent="1" source="QH5kVCey-qOMAw6Wp_jd-185" target="QH5kVCey-qOMAw6Wp_jd-124">
          <mxGeometry relative="1" as="geometry" />
        </mxCell>
        <mxCell id="QH5kVCey-qOMAw6Wp_jd-210" value="" style="group;fontColor=#E4FDE1;fillColor=#ffffff;" vertex="1" connectable="0" parent="1">
          <mxGeometry x="80" y="680" width="35" height="30" as="geometry" />
        </mxCell>
        <mxCell id="QH5kVCey-qOMAw6Wp_jd-211" value="" style="rounded=1;whiteSpace=wrap;html=1;shadow=0;glass=0;sketch=0;strokeWidth=1;fontSize=14;fontColor=#E4FDE1;strokeColor=#028090;" vertex="1" parent="QH5kVCey-qOMAw6Wp_jd-210">
          <mxGeometry width="35" height="30" as="geometry" />
        </mxCell>
        <mxCell id="QH5kVCey-qOMAw6Wp_jd-212" value="&lt;font color=&quot;#3399ff&quot; style=&quot;font-size: 12px&quot;&gt;河&lt;/font&gt;" style="text;html=1;strokeColor=none;align=center;verticalAlign=middle;whiteSpace=wrap;rounded=0;shadow=0;glass=0;sketch=0;fontSize=12;fontColor=#E4FDE1;fillColor=#ffffff;" vertex="1" parent="QH5kVCey-qOMAw6Wp_jd-210">
          <mxGeometry x="3.5" y="5" width="28" height="20" as="geometry" />
        </mxCell>
        <mxCell id="QH5kVCey-qOMAw6Wp_jd-213" value="" style="group;fontColor=#E4FDE1;fillColor=#ffffff;" vertex="1" connectable="0" parent="1">
          <mxGeometry x="130" y="680" width="35" height="30" as="geometry" />
        </mxCell>
        <mxCell id="QH5kVCey-qOMAw6Wp_jd-214" value="" style="rounded=1;whiteSpace=wrap;html=1;shadow=0;glass=0;sketch=0;strokeWidth=1;fontSize=14;fontColor=#E4FDE1;strokeColor=#028090;" vertex="1" parent="QH5kVCey-qOMAw6Wp_jd-213">
          <mxGeometry width="35" height="30" as="geometry" />
        </mxCell>
        <mxCell id="QH5kVCey-qOMAw6Wp_jd-215" value="&lt;font color=&quot;#3399ff&quot; style=&quot;font-size: 12px&quot;&gt;江&lt;/font&gt;" style="text;html=1;strokeColor=none;align=center;verticalAlign=middle;whiteSpace=wrap;rounded=0;shadow=0;glass=0;sketch=0;fontSize=12;fontColor=#E4FDE1;fillColor=#ffffff;" vertex="1" parent="QH5kVCey-qOMAw6Wp_jd-213">
          <mxGeometry x="3.5" y="5" width="28" height="20" as="geometry" />
        </mxCell>
        <mxCell id="QH5kVCey-qOMAw6Wp_jd-216" value="" style="group;fontColor=#E4FDE1;fillColor=#ffffff;" vertex="1" connectable="0" parent="1">
          <mxGeometry x="80" y="760" width="35" height="30" as="geometry" />
        </mxCell>
        <mxCell id="QH5kVCey-qOMAw6Wp_jd-217" value="" style="rounded=1;whiteSpace=wrap;html=1;shadow=0;glass=0;sketch=0;strokeWidth=1;fontSize=14;fontColor=#E4FDE1;strokeColor=#028090;" vertex="1" parent="QH5kVCey-qOMAw6Wp_jd-216">
          <mxGeometry width="35" height="30" as="geometry" />
        </mxCell>
        <mxCell id="QH5kVCey-qOMAw6Wp_jd-218" value="&lt;font color=&quot;#3399ff&quot; style=&quot;font-size: 12px&quot;&gt;湖&lt;/font&gt;" style="text;html=1;strokeColor=none;align=center;verticalAlign=middle;whiteSpace=wrap;rounded=0;shadow=0;glass=0;sketch=0;fontSize=12;fontColor=#E4FDE1;fillColor=#ffffff;" vertex="1" parent="QH5kVCey-qOMAw6Wp_jd-216">
          <mxGeometry x="3.5" y="5" width="28" height="20" as="geometry" />
        </mxCell>
        <mxCell id="QH5kVCey-qOMAw6Wp_jd-219" value="" style="group;fontColor=#E4FDE1;fillColor=#ffffff;" vertex="1" connectable="0" parent="1">
          <mxGeometry x="130" y="760" width="35" height="30" as="geometry" />
        </mxCell>
        <mxCell id="QH5kVCey-qOMAw6Wp_jd-220" value="" style="rounded=1;whiteSpace=wrap;html=1;shadow=0;glass=0;sketch=0;strokeWidth=1;fontSize=14;fontColor=#E4FDE1;strokeColor=#028090;" vertex="1" parent="QH5kVCey-qOMAw6Wp_jd-219">
          <mxGeometry width="35" height="30" as="geometry" />
        </mxCell>
        <mxCell id="QH5kVCey-qOMAw6Wp_jd-221" value="&lt;font color=&quot;#3399ff&quot; style=&quot;font-size: 12px&quot;&gt;海&lt;/font&gt;" style="text;html=1;strokeColor=none;align=center;verticalAlign=middle;whiteSpace=wrap;rounded=0;shadow=0;glass=0;sketch=0;fontSize=12;fontColor=#E4FDE1;fillColor=#ffffff;" vertex="1" parent="QH5kVCey-qOMAw6Wp_jd-219">
          <mxGeometry x="3.5" y="5" width="28" height="20" as="geometry" />
        </mxCell>
        <mxCell id="QH5kVCey-qOMAw6Wp_jd-222" style="edgeStyle=orthogonalEdgeStyle;curved=1;rounded=0;orthogonalLoop=1;jettySize=auto;html=1;entryX=0;entryY=0.5;entryDx=0;entryDy=0;strokeColor=#028090;strokeWidth=2;fontSize=12;fontColor=#E4FDE1;exitX=0.5;exitY=1;exitDx=0;exitDy=0;labelBackgroundColor=#114B5F;" edge="1" parent="1" source="QH5kVCey-qOMAw6Wp_jd-214" target="QH5kVCey-qOMAw6Wp_jd-118">
          <mxGeometry relative="1" as="geometry" />
        </mxCell>
        <mxCell id="QH5kVCey-qOMAw6Wp_jd-223" style="edgeStyle=orthogonalEdgeStyle;curved=1;rounded=0;orthogonalLoop=1;jettySize=auto;html=1;entryX=0;entryY=0.5;entryDx=0;entryDy=0;strokeColor=#028090;strokeWidth=2;fontSize=12;fontColor=#E4FDE1;exitX=0.5;exitY=0;exitDx=0;exitDy=0;labelBackgroundColor=#114B5F;" edge="1" parent="1" source="QH5kVCey-qOMAw6Wp_jd-220" target="QH5kVCey-qOMAw6Wp_jd-118">
          <mxGeometry relative="1" as="geometry" />
        </mxCell>
        <mxCell id="QH5kVCey-qOMAw6Wp_jd-224" style="edgeStyle=orthogonalEdgeStyle;curved=1;rounded=0;orthogonalLoop=1;jettySize=auto;html=1;entryX=0;entryY=0.5;entryDx=0;entryDy=0;strokeColor=#028090;strokeWidth=2;fontSize=12;fontColor=#E4FDE1;exitX=0.5;exitY=1;exitDx=0;exitDy=0;labelBackgroundColor=#114B5F;" edge="1" parent="1" source="QH5kVCey-qOMAw6Wp_jd-211" target="QH5kVCey-qOMAw6Wp_jd-118">
          <mxGeometry relative="1" as="geometry" />
        </mxCell>
        <mxCell id="QH5kVCey-qOMAw6Wp_jd-226" style="edgeStyle=orthogonalEdgeStyle;curved=1;rounded=0;orthogonalLoop=1;jettySize=auto;html=1;entryX=0;entryY=0.5;entryDx=0;entryDy=0;strokeColor=#028090;strokeWidth=2;fontSize=12;fontColor=#E4FDE1;exitX=0.5;exitY=0;exitDx=0;exitDy=0;labelBackgroundColor=#114B5F;" edge="1" parent="1" source="QH5kVCey-qOMAw6Wp_jd-217" target="QH5kVCey-qOMAw6Wp_jd-118">
          <mxGeometry relative="1" as="geometry" />
        </mxCell>
        <mxCell id="QH5kVCey-qOMAw6Wp_jd-228" value="" style="group;fontColor=#ffffff;strokeColor=#006EAF;fillColor=#1ba1e2;rounded=1;" vertex="1" connectable="0" parent="1">
          <mxGeometry x="680" y="320" width="80" height="30" as="geometry" />
        </mxCell>
        <mxCell id="QH5kVCey-qOMAw6Wp_jd-229" value="" style="rounded=1;whiteSpace=wrap;html=1;shadow=0;glass=0;sketch=0;strokeWidth=1;fontColor=#ffffff;strokeColor=#FF8000;fillColor=#FF8000;" vertex="1" parent="QH5kVCey-qOMAw6Wp_jd-228">
          <mxGeometry width="80" height="30" as="geometry" />
        </mxCell>
        <mxCell id="QH5kVCey-qOMAw6Wp_jd-230" value="&lt;font style=&quot;font-size: 12px&quot;&gt;交通&lt;/font&gt;" style="text;html=1;align=center;verticalAlign=middle;whiteSpace=wrap;rounded=1;shadow=0;glass=0;sketch=0;fontColor=#ffffff;fontSize=14;" vertex="1" parent="QH5kVCey-qOMAw6Wp_jd-228">
          <mxGeometry x="4.446535947712419" y="5" width="71.11111111111111" height="20" as="geometry" />
        </mxCell>
        <mxCell id="QH5kVCey-qOMAw6Wp_jd-236" value="" style="group;fillColor=#1ba1e2;strokeColor=#006EAF;fontColor=#ffffff;rounded=1;" vertex="1" connectable="0" parent="1">
          <mxGeometry x="960" y="290" width="80" height="30" as="geometry" />
        </mxCell>
        <mxCell id="QH5kVCey-qOMAw6Wp_jd-237" value="" style="rounded=1;whiteSpace=wrap;html=1;shadow=0;glass=0;sketch=0;strokeWidth=1;fillColor=#FF8000;strokeColor=#FF8000;fontColor=#ffffff;" vertex="1" parent="QH5kVCey-qOMAw6Wp_jd-236">
          <mxGeometry width="80" height="30" as="geometry" />
        </mxCell>
        <mxCell id="QH5kVCey-qOMAw6Wp_jd-238" value="&lt;span style=&quot;font-size: 12px&quot;&gt;商业&lt;/span&gt;" style="text;html=1;align=center;verticalAlign=middle;whiteSpace=wrap;rounded=1;shadow=0;glass=0;sketch=0;fontSize=14;fontColor=#ffffff;" vertex="1" parent="QH5kVCey-qOMAw6Wp_jd-236">
          <mxGeometry x="4.446535947712419" y="5" width="71.11111111111111" height="20" as="geometry" />
        </mxCell>
        <mxCell id="QH5kVCey-qOMAw6Wp_jd-239" value="" style="group;fillColor=#1ba1e2;strokeColor=#006EAF;fontColor=#ffffff;rounded=1;" vertex="1" connectable="0" parent="1">
          <mxGeometry x="960" y="420" width="80" height="30" as="geometry" />
        </mxCell>
        <mxCell id="QH5kVCey-qOMAw6Wp_jd-240" value="" style="rounded=1;whiteSpace=wrap;html=1;shadow=0;glass=0;sketch=0;strokeWidth=1;fillColor=#FF8000;strokeColor=#FF8000;fontColor=#ffffff;" vertex="1" parent="QH5kVCey-qOMAw6Wp_jd-239">
          <mxGeometry width="80" height="30" as="geometry" />
        </mxCell>
        <mxCell id="QH5kVCey-qOMAw6Wp_jd-241" value="&lt;span style=&quot;font-size: 12px&quot;&gt;公共&lt;/span&gt;" style="text;html=1;align=center;verticalAlign=middle;whiteSpace=wrap;rounded=1;shadow=0;glass=0;sketch=0;fontSize=14;fontColor=#ffffff;" vertex="1" parent="QH5kVCey-qOMAw6Wp_jd-239">
          <mxGeometry x="4.446535947712419" y="5" width="71.11111111111111" height="20" as="geometry" />
        </mxCell>
        <mxCell id="QH5kVCey-qOMAw6Wp_jd-242" style="edgeStyle=orthogonalEdgeStyle;curved=1;rounded=0;orthogonalLoop=1;jettySize=auto;html=1;entryX=0.5;entryY=0;entryDx=0;entryDy=0;strokeColor=#028090;strokeWidth=2;fontSize=12;fontColor=#E4FDE1;labelBackgroundColor=#114B5F;" edge="1" parent="1" target="QH5kVCey-qOMAw6Wp_jd-105">
          <mxGeometry relative="1" as="geometry">
            <mxPoint x="720" y="350" as="sourcePoint" />
          </mxGeometry>
        </mxCell>
        <mxCell id="QH5kVCey-qOMAw6Wp_jd-243" style="edgeStyle=orthogonalEdgeStyle;curved=1;rounded=0;orthogonalLoop=1;jettySize=auto;html=1;entryX=0.5;entryY=0;entryDx=0;entryDy=0;strokeColor=#028090;strokeWidth=2;fontSize=12;fontColor=#E4FDE1;labelBackgroundColor=#114B5F;" edge="1" parent="1" source="QH5kVCey-qOMAw6Wp_jd-233" target="QH5kVCey-qOMAw6Wp_jd-105">
          <mxGeometry relative="1" as="geometry" />
        </mxCell>
        <mxCell id="QH5kVCey-qOMAw6Wp_jd-244" style="edgeStyle=orthogonalEdgeStyle;curved=1;rounded=0;orthogonalLoop=1;jettySize=auto;html=1;entryX=1;entryY=0.5;entryDx=0;entryDy=0;strokeColor=#028090;strokeWidth=2;fontSize=12;fontColor=#E4FDE1;exitX=0;exitY=0.5;exitDx=0;exitDy=0;labelBackgroundColor=#114B5F;" edge="1" parent="1" source="QH5kVCey-qOMAw6Wp_jd-237" target="QH5kVCey-qOMAw6Wp_jd-233">
          <mxGeometry relative="1" as="geometry">
            <mxPoint x="960" y="275" as="sourcePoint" />
          </mxGeometry>
        </mxCell>
        <mxCell id="QH5kVCey-qOMAw6Wp_jd-245" style="edgeStyle=orthogonalEdgeStyle;curved=1;rounded=0;orthogonalLoop=1;jettySize=auto;html=1;strokeColor=#028090;strokeWidth=2;fontSize=12;fontColor=#E4FDE1;entryX=1;entryY=0.5;entryDx=0;entryDy=0;labelBackgroundColor=#114B5F;" edge="1" parent="1" source="QH5kVCey-qOMAw6Wp_jd-240" target="QH5kVCey-qOMAw6Wp_jd-233">
          <mxGeometry relative="1" as="geometry">
            <mxPoint x="910" y="380" as="targetPoint" />
          </mxGeometry>
        </mxCell>
        <mxCell id="QH5kVCey-qOMAw6Wp_jd-246" value="" style="group;fontColor=#E4FDE1;fillColor=#ffffff;" vertex="1" connectable="0" parent="1">
          <mxGeometry x="930" y="210" width="50" height="30" as="geometry" />
        </mxCell>
        <mxCell id="QH5kVCey-qOMAw6Wp_jd-247" value="" style="rounded=1;whiteSpace=wrap;html=1;shadow=0;glass=0;sketch=0;strokeWidth=1;fontSize=14;fontColor=#E4FDE1;strokeColor=#028090;" vertex="1" parent="QH5kVCey-qOMAw6Wp_jd-246">
          <mxGeometry width="50" height="30" as="geometry" />
        </mxCell>
        <mxCell id="QH5kVCey-qOMAw6Wp_jd-248" value="&lt;font color=&quot;#3399ff&quot; style=&quot;font-size: 12px&quot;&gt;地摊&lt;/font&gt;" style="text;html=1;strokeColor=none;align=center;verticalAlign=middle;whiteSpace=wrap;rounded=0;shadow=0;glass=0;sketch=0;fontSize=12;fontColor=#E4FDE1;fillColor=#ffffff;" vertex="1" parent="QH5kVCey-qOMAw6Wp_jd-246">
          <mxGeometry x="5" y="5" width="40" height="20" as="geometry" />
        </mxCell>
        <mxCell id="QH5kVCey-qOMAw6Wp_jd-249" value="" style="group;fontColor=#E4FDE1;fillColor=#ffffff;" vertex="1" connectable="0" parent="1">
          <mxGeometry x="1020" y="210" width="50" height="30" as="geometry" />
        </mxCell>
        <mxCell id="QH5kVCey-qOMAw6Wp_jd-250" value="" style="rounded=1;whiteSpace=wrap;html=1;shadow=0;glass=0;sketch=0;strokeWidth=1;fontSize=14;fontColor=#E4FDE1;strokeColor=#028090;" vertex="1" parent="QH5kVCey-qOMAw6Wp_jd-249">
          <mxGeometry width="50" height="30" as="geometry" />
        </mxCell>
        <mxCell id="QH5kVCey-qOMAw6Wp_jd-251" value="&lt;font color=&quot;#3399ff&quot;&gt;售货柜&lt;/font&gt;" style="text;html=1;strokeColor=none;align=center;verticalAlign=middle;whiteSpace=wrap;rounded=0;shadow=0;glass=0;sketch=0;fontSize=12;fontColor=#E4FDE1;fillColor=#ffffff;" vertex="1" parent="QH5kVCey-qOMAw6Wp_jd-249">
          <mxGeometry x="5" y="5" width="40" height="20" as="geometry" />
        </mxCell>
        <mxCell id="QH5kVCey-qOMAw6Wp_jd-253" value="" style="group;fontColor=#E4FDE1;fillColor=#ffffff;" vertex="1" connectable="0" parent="1">
          <mxGeometry x="1080" y="250" width="50" height="30" as="geometry" />
        </mxCell>
        <mxCell id="QH5kVCey-qOMAw6Wp_jd-254" value="" style="rounded=1;whiteSpace=wrap;html=1;shadow=0;glass=0;sketch=0;strokeWidth=1;fontSize=14;fontColor=#E4FDE1;strokeColor=#028090;" vertex="1" parent="QH5kVCey-qOMAw6Wp_jd-253">
          <mxGeometry width="50" height="30" as="geometry" />
        </mxCell>
        <mxCell id="QH5kVCey-qOMAw6Wp_jd-255" value="&lt;font color=&quot;#3399ff&quot;&gt;广告牌&lt;/font&gt;" style="text;html=1;strokeColor=none;align=center;verticalAlign=middle;whiteSpace=wrap;rounded=0;shadow=0;glass=0;sketch=0;fontSize=12;fontColor=#E4FDE1;fillColor=#ffffff;" vertex="1" parent="QH5kVCey-qOMAw6Wp_jd-253">
          <mxGeometry x="5" y="5" width="40" height="20" as="geometry" />
        </mxCell>
        <mxCell id="QH5kVCey-qOMAw6Wp_jd-256" value="" style="group;fontColor=#E4FDE1;fillColor=#ffffff;" vertex="1" connectable="0" parent="1">
          <mxGeometry x="1080" y="330" width="50" height="30" as="geometry" />
        </mxCell>
        <mxCell id="QH5kVCey-qOMAw6Wp_jd-257" value="" style="rounded=1;whiteSpace=wrap;html=1;shadow=0;glass=0;sketch=0;strokeWidth=1;fontSize=14;fontColor=#E4FDE1;strokeColor=#028090;" vertex="1" parent="QH5kVCey-qOMAw6Wp_jd-256">
          <mxGeometry width="50" height="30" as="geometry" />
        </mxCell>
        <mxCell id="QH5kVCey-qOMAw6Wp_jd-258" value="&lt;font color=&quot;#3399ff&quot;&gt;招牌&lt;/font&gt;" style="text;html=1;strokeColor=none;align=center;verticalAlign=middle;whiteSpace=wrap;rounded=0;shadow=0;glass=0;sketch=0;fontSize=12;fontColor=#E4FDE1;fillColor=#ffffff;" vertex="1" parent="QH5kVCey-qOMAw6Wp_jd-256">
          <mxGeometry x="5" y="5" width="40" height="20" as="geometry" />
        </mxCell>
        <mxCell id="QH5kVCey-qOMAw6Wp_jd-259" style="edgeStyle=orthogonalEdgeStyle;curved=1;rounded=0;orthogonalLoop=1;jettySize=auto;html=1;entryX=0.5;entryY=0;entryDx=0;entryDy=0;strokeColor=#028090;strokeWidth=2;fontSize=12;fontColor=#E4FDE1;exitX=1;exitY=0.5;exitDx=0;exitDy=0;labelBackgroundColor=#114B5F;" edge="1" parent="1" source="QH5kVCey-qOMAw6Wp_jd-247" target="QH5kVCey-qOMAw6Wp_jd-237">
          <mxGeometry relative="1" as="geometry" />
        </mxCell>
        <mxCell id="QH5kVCey-qOMAw6Wp_jd-262" style="edgeStyle=orthogonalEdgeStyle;curved=1;rounded=0;orthogonalLoop=1;jettySize=auto;html=1;entryX=1;entryY=0.5;entryDx=0;entryDy=0;strokeColor=#028090;strokeWidth=2;fontSize=12;fontColor=#E4FDE1;exitX=0.5;exitY=1;exitDx=0;exitDy=0;labelBackgroundColor=#114B5F;" edge="1" parent="1" source="QH5kVCey-qOMAw6Wp_jd-254" target="QH5kVCey-qOMAw6Wp_jd-237">
          <mxGeometry relative="1" as="geometry" />
        </mxCell>
        <mxCell id="QH5kVCey-qOMAw6Wp_jd-263" style="edgeStyle=orthogonalEdgeStyle;curved=1;rounded=0;orthogonalLoop=1;jettySize=auto;html=1;entryX=1;entryY=0.5;entryDx=0;entryDy=0;strokeColor=#028090;strokeWidth=2;fontSize=12;fontColor=#E4FDE1;exitX=0.5;exitY=0;exitDx=0;exitDy=0;labelBackgroundColor=#114B5F;" edge="1" parent="1" source="QH5kVCey-qOMAw6Wp_jd-257" target="QH5kVCey-qOMAw6Wp_jd-237">
          <mxGeometry relative="1" as="geometry" />
        </mxCell>
        <mxCell id="QH5kVCey-qOMAw6Wp_jd-264" style="edgeStyle=orthogonalEdgeStyle;curved=1;rounded=0;orthogonalLoop=1;jettySize=auto;html=1;strokeColor=#028090;strokeWidth=2;fontSize=12;fontColor=#E4FDE1;labelBackgroundColor=#114B5F;" edge="1" parent="1" source="QH5kVCey-qOMAw6Wp_jd-250">
          <mxGeometry relative="1" as="geometry">
            <mxPoint x="1000" y="290" as="targetPoint" />
          </mxGeometry>
        </mxCell>
        <mxCell id="QH5kVCey-qOMAw6Wp_jd-266" value="" style="group;fontColor=#E4FDE1;fillColor=#ffffff;" vertex="1" connectable="0" parent="1">
          <mxGeometry x="777" y="210" width="50" height="30" as="geometry" />
        </mxCell>
        <mxCell id="QH5kVCey-qOMAw6Wp_jd-267" value="" style="rounded=1;whiteSpace=wrap;html=1;shadow=0;glass=0;sketch=0;strokeWidth=1;fontSize=14;fontColor=#E4FDE1;strokeColor=#028090;" vertex="1" parent="QH5kVCey-qOMAw6Wp_jd-266">
          <mxGeometry width="50" height="30" as="geometry" />
        </mxCell>
        <mxCell id="QH5kVCey-qOMAw6Wp_jd-268" value="&lt;font color=&quot;#3399ff&quot;&gt;跑道&lt;/font&gt;" style="text;html=1;strokeColor=none;align=center;verticalAlign=middle;whiteSpace=wrap;rounded=0;shadow=0;glass=0;sketch=0;fontSize=12;fontColor=#E4FDE1;fillColor=#ffffff;" vertex="1" parent="QH5kVCey-qOMAw6Wp_jd-266">
          <mxGeometry x="5" y="5" width="40" height="20" as="geometry" />
        </mxCell>
        <mxCell id="QH5kVCey-qOMAw6Wp_jd-269" value="" style="group;fontColor=#E4FDE1;fillColor=#ffffff;" vertex="1" connectable="0" parent="1">
          <mxGeometry x="777" y="260" width="50" height="30" as="geometry" />
        </mxCell>
        <mxCell id="QH5kVCey-qOMAw6Wp_jd-270" value="" style="rounded=1;whiteSpace=wrap;html=1;shadow=0;glass=0;sketch=0;strokeWidth=1;fontSize=14;fontColor=#E4FDE1;strokeColor=#028090;" vertex="1" parent="QH5kVCey-qOMAw6Wp_jd-269">
          <mxGeometry width="50" height="30" as="geometry" />
        </mxCell>
        <mxCell id="QH5kVCey-qOMAw6Wp_jd-271" value="&lt;font color=&quot;#3399ff&quot; style=&quot;font-size: 12px&quot;&gt;步道&lt;/font&gt;" style="text;html=1;strokeColor=none;align=center;verticalAlign=middle;whiteSpace=wrap;rounded=0;shadow=0;glass=0;sketch=0;fontSize=12;fontColor=#E4FDE1;fillColor=#ffffff;" vertex="1" parent="QH5kVCey-qOMAw6Wp_jd-269">
          <mxGeometry x="5" y="5" width="40" height="20" as="geometry" />
        </mxCell>
        <mxCell id="QH5kVCey-qOMAw6Wp_jd-272" value="" style="group;fontColor=#E4FDE1;fillColor=#ffffff;" vertex="1" connectable="0" parent="1">
          <mxGeometry x="695" y="170" width="50" height="30" as="geometry" />
        </mxCell>
        <mxCell id="QH5kVCey-qOMAw6Wp_jd-273" value="" style="rounded=1;whiteSpace=wrap;html=1;shadow=0;glass=0;sketch=0;strokeWidth=1;fontSize=14;fontColor=#E4FDE1;strokeColor=#028090;" vertex="1" parent="QH5kVCey-qOMAw6Wp_jd-272">
          <mxGeometry width="50" height="30" as="geometry" />
        </mxCell>
        <mxCell id="QH5kVCey-qOMAw6Wp_jd-274" value="&lt;font color=&quot;#3399ff&quot;&gt;车行道&lt;/font&gt;" style="text;html=1;strokeColor=none;align=center;verticalAlign=middle;whiteSpace=wrap;rounded=0;shadow=0;glass=0;sketch=0;fontSize=12;fontColor=#E4FDE1;fillColor=#ffffff;" vertex="1" parent="QH5kVCey-qOMAw6Wp_jd-272">
          <mxGeometry x="5" y="5" width="40" height="20" as="geometry" />
        </mxCell>
        <mxCell id="QH5kVCey-qOMAw6Wp_jd-275" value="" style="group;fontColor=#E4FDE1;fillColor=#ffffff;" vertex="1" connectable="0" parent="1">
          <mxGeometry x="610" y="260" width="50" height="30" as="geometry" />
        </mxCell>
        <mxCell id="QH5kVCey-qOMAw6Wp_jd-276" value="" style="rounded=1;whiteSpace=wrap;html=1;shadow=0;glass=0;sketch=0;strokeWidth=1;fontSize=14;fontColor=#E4FDE1;strokeColor=#028090;" vertex="1" parent="QH5kVCey-qOMAw6Wp_jd-275">
          <mxGeometry width="50" height="30" as="geometry" />
        </mxCell>
        <mxCell id="QH5kVCey-qOMAw6Wp_jd-277" value="&lt;font color=&quot;#3399ff&quot;&gt;铁道&lt;/font&gt;" style="text;html=1;strokeColor=none;align=center;verticalAlign=middle;whiteSpace=wrap;rounded=0;shadow=0;glass=0;sketch=0;fontSize=12;fontColor=#E4FDE1;fillColor=#ffffff;" vertex="1" parent="QH5kVCey-qOMAw6Wp_jd-275">
          <mxGeometry x="5" y="5" width="40" height="20" as="geometry" />
        </mxCell>
        <mxCell id="QH5kVCey-qOMAw6Wp_jd-278" value="" style="group;fillColor=#ffffff;" vertex="1" connectable="0" parent="1">
          <mxGeometry x="610" y="210" width="50" height="30" as="geometry" />
        </mxCell>
        <mxCell id="QH5kVCey-qOMAw6Wp_jd-279" value="" style="rounded=1;whiteSpace=wrap;html=1;shadow=0;glass=0;sketch=0;strokeWidth=1;fontSize=14;fontColor=#E4FDE1;strokeColor=#028090;" vertex="1" parent="QH5kVCey-qOMAw6Wp_jd-278">
          <mxGeometry width="50" height="30" as="geometry" />
        </mxCell>
        <mxCell id="QH5kVCey-qOMAw6Wp_jd-280" value="&lt;font color=&quot;#3399ff&quot;&gt;土路&lt;/font&gt;" style="text;html=1;strokeColor=none;align=center;verticalAlign=middle;whiteSpace=wrap;rounded=0;shadow=0;glass=0;sketch=0;fontSize=12;fontColor=#E4FDE1;fillColor=#ffffff;" vertex="1" parent="QH5kVCey-qOMAw6Wp_jd-278">
          <mxGeometry x="5" y="5" width="40" height="20" as="geometry" />
        </mxCell>
        <mxCell id="QH5kVCey-qOMAw6Wp_jd-281" style="edgeStyle=orthogonalEdgeStyle;curved=1;rounded=0;orthogonalLoop=1;jettySize=auto;html=1;entryX=0.5;entryY=0;entryDx=0;entryDy=0;strokeColor=#028090;strokeWidth=2;fontSize=12;fontColor=#E4FDE1;labelBackgroundColor=#114B5F;" edge="1" parent="1" source="QH5kVCey-qOMAw6Wp_jd-276" target="QH5kVCey-qOMAw6Wp_jd-229">
          <mxGeometry relative="1" as="geometry" />
        </mxCell>
        <mxCell id="QH5kVCey-qOMAw6Wp_jd-282" style="edgeStyle=orthogonalEdgeStyle;curved=1;rounded=0;orthogonalLoop=1;jettySize=auto;html=1;strokeColor=#028090;strokeWidth=2;fontSize=12;fontColor=#E4FDE1;labelBackgroundColor=#114B5F;" edge="1" parent="1" source="QH5kVCey-qOMAw6Wp_jd-270">
          <mxGeometry relative="1" as="geometry">
            <mxPoint x="720" y="320" as="targetPoint" />
          </mxGeometry>
        </mxCell>
        <mxCell id="QH5kVCey-qOMAw6Wp_jd-283" style="edgeStyle=orthogonalEdgeStyle;curved=1;rounded=0;orthogonalLoop=1;jettySize=auto;html=1;strokeColor=#028090;strokeWidth=2;fontSize=12;fontColor=#E4FDE1;labelBackgroundColor=#114B5F;" edge="1" parent="1" source="QH5kVCey-qOMAw6Wp_jd-267">
          <mxGeometry relative="1" as="geometry">
            <mxPoint x="720" y="320" as="targetPoint" />
          </mxGeometry>
        </mxCell>
        <mxCell id="QH5kVCey-qOMAw6Wp_jd-284" style="edgeStyle=orthogonalEdgeStyle;curved=1;rounded=0;orthogonalLoop=1;jettySize=auto;html=1;strokeColor=#028090;strokeWidth=2;fontSize=12;fontColor=#E4FDE1;labelBackgroundColor=#114B5F;" edge="1" parent="1" source="QH5kVCey-qOMAw6Wp_jd-279">
          <mxGeometry relative="1" as="geometry">
            <mxPoint x="720" y="320" as="targetPoint" />
          </mxGeometry>
        </mxCell>
        <mxCell id="QH5kVCey-qOMAw6Wp_jd-285" style="edgeStyle=orthogonalEdgeStyle;curved=1;rounded=0;orthogonalLoop=1;jettySize=auto;html=1;strokeColor=#028090;strokeWidth=2;fontSize=12;fontColor=#E4FDE1;labelBackgroundColor=#114B5F;" edge="1" parent="1" source="QH5kVCey-qOMAw6Wp_jd-273">
          <mxGeometry relative="1" as="geometry">
            <mxPoint x="720" y="320" as="targetPoint" />
          </mxGeometry>
        </mxCell>
        <mxCell id="QH5kVCey-qOMAw6Wp_jd-286" value="" style="group;fontColor=#E4FDE1;fillColor=#ffffff;" vertex="1" connectable="0" parent="1">
          <mxGeometry x="1100" y="380" width="50" height="30" as="geometry" />
        </mxCell>
        <mxCell id="QH5kVCey-qOMAw6Wp_jd-287" value="" style="rounded=1;whiteSpace=wrap;html=1;shadow=0;glass=0;sketch=0;strokeWidth=1;fontSize=14;fontColor=#E4FDE1;strokeColor=#028090;" vertex="1" parent="QH5kVCey-qOMAw6Wp_jd-286">
          <mxGeometry width="50" height="30" as="geometry" />
        </mxCell>
        <mxCell id="QH5kVCey-qOMAw6Wp_jd-288" value="&lt;font color=&quot;#3399ff&quot;&gt;垃圾桶&lt;/font&gt;" style="text;html=1;strokeColor=none;align=center;verticalAlign=middle;whiteSpace=wrap;rounded=0;shadow=0;glass=0;sketch=0;fontSize=12;fontColor=#E4FDE1;fillColor=#ffffff;" vertex="1" parent="QH5kVCey-qOMAw6Wp_jd-286">
          <mxGeometry x="5" y="5" width="40" height="20" as="geometry" />
        </mxCell>
        <mxCell id="QH5kVCey-qOMAw6Wp_jd-289" value="" style="group;fontColor=#E4FDE1;fillColor=#ffffff;" vertex="1" connectable="0" parent="1">
          <mxGeometry x="920" y="500" width="50" height="30" as="geometry" />
        </mxCell>
        <mxCell id="QH5kVCey-qOMAw6Wp_jd-290" value="" style="rounded=1;whiteSpace=wrap;html=1;shadow=0;glass=0;sketch=0;strokeWidth=1;fontSize=14;fontColor=#E4FDE1;strokeColor=#028090;" vertex="1" parent="QH5kVCey-qOMAw6Wp_jd-289">
          <mxGeometry width="50" height="30" as="geometry" />
        </mxCell>
        <mxCell id="QH5kVCey-qOMAw6Wp_jd-291" value="&lt;font color=&quot;#3399ff&quot;&gt;长椅&lt;/font&gt;" style="text;html=1;strokeColor=none;align=center;verticalAlign=middle;whiteSpace=wrap;rounded=0;shadow=0;glass=0;sketch=0;fontSize=12;fontColor=#E4FDE1;fillColor=#ffffff;" vertex="1" parent="QH5kVCey-qOMAw6Wp_jd-289">
          <mxGeometry x="5" y="5" width="40" height="20" as="geometry" />
        </mxCell>
        <mxCell id="QH5kVCey-qOMAw6Wp_jd-292" value="" style="group;fontColor=#E4FDE1;fillColor=#ffffff;" vertex="1" connectable="0" parent="1">
          <mxGeometry x="1100" y="470" width="50" height="30" as="geometry" />
        </mxCell>
        <mxCell id="QH5kVCey-qOMAw6Wp_jd-293" value="" style="rounded=1;whiteSpace=wrap;html=1;shadow=0;glass=0;sketch=0;strokeWidth=1;fontSize=14;fontColor=#E4FDE1;strokeColor=#028090;" vertex="1" parent="QH5kVCey-qOMAw6Wp_jd-292">
          <mxGeometry width="50" height="30" as="geometry" />
        </mxCell>
        <mxCell id="QH5kVCey-qOMAw6Wp_jd-294" value="&lt;font color=&quot;#3399ff&quot;&gt;电线杆&lt;/font&gt;" style="text;html=1;strokeColor=none;align=center;verticalAlign=middle;whiteSpace=wrap;rounded=0;shadow=0;glass=0;sketch=0;fontSize=12;fontColor=#E4FDE1;fillColor=#ffffff;" vertex="1" parent="QH5kVCey-qOMAw6Wp_jd-292">
          <mxGeometry x="5" y="5" width="40" height="20" as="geometry" />
        </mxCell>
        <mxCell id="QH5kVCey-qOMAw6Wp_jd-298" value="" style="group;fontColor=#E4FDE1;fillColor=#ffffff;" vertex="1" connectable="0" parent="1">
          <mxGeometry x="1170" y="420" width="50" height="30" as="geometry" />
        </mxCell>
        <mxCell id="QH5kVCey-qOMAw6Wp_jd-299" value="" style="rounded=1;whiteSpace=wrap;html=1;shadow=0;glass=0;sketch=0;strokeWidth=1;fontSize=14;fontColor=#E4FDE1;strokeColor=#028090;" vertex="1" parent="QH5kVCey-qOMAw6Wp_jd-298">
          <mxGeometry width="50" height="30" as="geometry" />
        </mxCell>
        <mxCell id="QH5kVCey-qOMAw6Wp_jd-300" value="&lt;font color=&quot;#3399ff&quot;&gt;信号灯&lt;/font&gt;" style="text;html=1;strokeColor=none;align=center;verticalAlign=middle;whiteSpace=wrap;rounded=0;shadow=0;glass=0;sketch=0;fontSize=12;fontColor=#E4FDE1;fillColor=#ffffff;" vertex="1" parent="QH5kVCey-qOMAw6Wp_jd-298">
          <mxGeometry x="5" y="5" width="40" height="20" as="geometry" />
        </mxCell>
        <mxCell id="QH5kVCey-qOMAw6Wp_jd-304" style="edgeStyle=orthogonalEdgeStyle;curved=1;rounded=0;orthogonalLoop=1;jettySize=auto;html=1;entryX=1;entryY=0.5;entryDx=0;entryDy=0;strokeColor=#028090;strokeWidth=2;fontSize=12;fontColor=#E4FDE1;exitX=0.5;exitY=1;exitDx=0;exitDy=0;labelBackgroundColor=#114B5F;" edge="1" parent="1" source="QH5kVCey-qOMAw6Wp_jd-287" target="QH5kVCey-qOMAw6Wp_jd-240">
          <mxGeometry relative="1" as="geometry" />
        </mxCell>
        <mxCell id="QH5kVCey-qOMAw6Wp_jd-305" style="edgeStyle=orthogonalEdgeStyle;curved=1;rounded=0;orthogonalLoop=1;jettySize=auto;html=1;entryX=1;entryY=0.5;entryDx=0;entryDy=0;strokeColor=#028090;strokeWidth=2;fontSize=12;fontColor=#E4FDE1;exitX=0.5;exitY=0;exitDx=0;exitDy=0;labelBackgroundColor=#114B5F;" edge="1" parent="1" source="QH5kVCey-qOMAw6Wp_jd-293" target="QH5kVCey-qOMAw6Wp_jd-240">
          <mxGeometry relative="1" as="geometry" />
        </mxCell>
        <mxCell id="QH5kVCey-qOMAw6Wp_jd-306" style="edgeStyle=orthogonalEdgeStyle;curved=1;rounded=0;orthogonalLoop=1;jettySize=auto;html=1;strokeColor=#028090;strokeWidth=2;fontSize=12;fontColor=#E4FDE1;labelBackgroundColor=#114B5F;" edge="1" parent="1" source="QH5kVCey-qOMAw6Wp_jd-299">
          <mxGeometry relative="1" as="geometry">
            <mxPoint x="1040" y="435" as="targetPoint" />
          </mxGeometry>
        </mxCell>
        <mxCell id="QH5kVCey-qOMAw6Wp_jd-307" value="" style="group;fontColor=#E4FDE1;fillColor=#ffffff;" vertex="1" connectable="0" parent="1">
          <mxGeometry x="1030" y="500" width="50" height="30" as="geometry" />
        </mxCell>
        <mxCell id="QH5kVCey-qOMAw6Wp_jd-308" value="" style="rounded=1;whiteSpace=wrap;html=1;shadow=0;glass=0;sketch=0;strokeWidth=1;fontSize=14;fontColor=#E4FDE1;strokeColor=#028090;" vertex="1" parent="QH5kVCey-qOMAw6Wp_jd-307">
          <mxGeometry width="50" height="30" as="geometry" />
        </mxCell>
        <mxCell id="QH5kVCey-qOMAw6Wp_jd-309" value="&lt;font color=&quot;#3399ff&quot;&gt;旗帜&lt;/font&gt;" style="text;html=1;strokeColor=none;align=center;verticalAlign=middle;whiteSpace=wrap;rounded=0;shadow=0;glass=0;sketch=0;fontSize=12;fontColor=#E4FDE1;fillColor=#ffffff;" vertex="1" parent="QH5kVCey-qOMAw6Wp_jd-307">
          <mxGeometry x="5" y="5" width="40" height="20" as="geometry" />
        </mxCell>
        <mxCell id="QH5kVCey-qOMAw6Wp_jd-310" style="edgeStyle=orthogonalEdgeStyle;curved=1;rounded=0;orthogonalLoop=1;jettySize=auto;html=1;entryX=0.5;entryY=1;entryDx=0;entryDy=0;strokeColor=#028090;strokeWidth=2;fontSize=12;fontColor=#E4FDE1;exitX=1;exitY=0.5;exitDx=0;exitDy=0;labelBackgroundColor=#114B5F;" edge="1" parent="1" source="QH5kVCey-qOMAw6Wp_jd-290" target="QH5kVCey-qOMAw6Wp_jd-240">
          <mxGeometry relative="1" as="geometry" />
        </mxCell>
        <mxCell id="QH5kVCey-qOMAw6Wp_jd-311" style="edgeStyle=orthogonalEdgeStyle;curved=1;rounded=0;orthogonalLoop=1;jettySize=auto;html=1;strokeColor=#028090;strokeWidth=2;fontSize=12;fontColor=#E4FDE1;labelBackgroundColor=#114B5F;" edge="1" parent="1" source="QH5kVCey-qOMAw6Wp_jd-308">
          <mxGeometry relative="1" as="geometry">
            <mxPoint x="1000" y="450" as="targetPoint" />
          </mxGeometry>
        </mxCell>
        <mxCell id="QH5kVCey-qOMAw6Wp_jd-312" value="" style="group;fontColor=#ffffff;rounded=1;" vertex="1" connectable="0" parent="1">
          <mxGeometry x="680" y="655" width="80" height="30" as="geometry" />
        </mxCell>
        <mxCell id="QH5kVCey-qOMAw6Wp_jd-313" value="" style="rounded=1;whiteSpace=wrap;html=1;shadow=0;glass=0;sketch=0;strokeWidth=1;fontColor=#ffffff;strokeColor=#FF8000;fillColor=#FF8000;" vertex="1" parent="QH5kVCey-qOMAw6Wp_jd-312">
          <mxGeometry width="80" height="30" as="geometry" />
        </mxCell>
        <mxCell id="QH5kVCey-qOMAw6Wp_jd-314" value="&lt;span style=&quot;font-size: 12px&quot;&gt;建造物&lt;/span&gt;" style="text;html=1;align=center;verticalAlign=middle;whiteSpace=wrap;rounded=1;shadow=0;glass=0;sketch=0;fontColor=#ffffff;fontSize=14;" vertex="1" parent="QH5kVCey-qOMAw6Wp_jd-312">
          <mxGeometry x="4.446535947712419" y="5" width="71.11111111111111" height="20" as="geometry" />
        </mxCell>
        <mxCell id="QH5kVCey-qOMAw6Wp_jd-315" style="edgeStyle=orthogonalEdgeStyle;curved=1;rounded=0;orthogonalLoop=1;jettySize=auto;html=1;entryX=0.5;entryY=1;entryDx=0;entryDy=0;strokeColor=#028090;strokeWidth=2;fontSize=12;fontColor=#E4FDE1;labelBackgroundColor=#114B5F;" edge="1" parent="1" source="QH5kVCey-qOMAw6Wp_jd-313" target="QH5kVCey-qOMAw6Wp_jd-105">
          <mxGeometry relative="1" as="geometry" />
        </mxCell>
        <mxCell id="QH5kVCey-qOMAw6Wp_jd-317" value="" style="group;fontColor=#E4FDE1;fillColor=#ffffff;" vertex="1" connectable="0" parent="1">
          <mxGeometry x="560" y="695" width="50" height="30" as="geometry" />
        </mxCell>
        <mxCell id="QH5kVCey-qOMAw6Wp_jd-318" value="" style="rounded=1;whiteSpace=wrap;html=1;shadow=0;glass=0;sketch=0;strokeWidth=1;fontSize=14;fontColor=#E4FDE1;strokeColor=#028090;" vertex="1" parent="QH5kVCey-qOMAw6Wp_jd-317">
          <mxGeometry width="50" height="30" as="geometry" />
        </mxCell>
        <mxCell id="QH5kVCey-qOMAw6Wp_jd-319" value="&lt;font color=&quot;#3399ff&quot;&gt;渡口&lt;/font&gt;" style="text;html=1;strokeColor=none;align=center;verticalAlign=middle;whiteSpace=wrap;rounded=0;shadow=0;glass=0;sketch=0;fontSize=12;fontColor=#E4FDE1;fillColor=#ffffff;" vertex="1" parent="QH5kVCey-qOMAw6Wp_jd-317">
          <mxGeometry x="5" y="5" width="40" height="20" as="geometry" />
        </mxCell>
        <mxCell id="QH5kVCey-qOMAw6Wp_jd-320" value="" style="group;fontColor=#E4FDE1;fillColor=#ffffff;" vertex="1" connectable="0" parent="1">
          <mxGeometry x="820" y="580" width="50" height="30" as="geometry" />
        </mxCell>
        <mxCell id="QH5kVCey-qOMAw6Wp_jd-321" value="" style="rounded=1;whiteSpace=wrap;html=1;shadow=0;glass=0;sketch=0;strokeWidth=1;fontSize=14;fontColor=#E4FDE1;strokeColor=#028090;" vertex="1" parent="QH5kVCey-qOMAw6Wp_jd-320">
          <mxGeometry width="50" height="30" as="geometry" />
        </mxCell>
        <mxCell id="QH5kVCey-qOMAw6Wp_jd-322" value="&lt;font color=&quot;#3399ff&quot;&gt;雕塑&lt;/font&gt;" style="text;html=1;strokeColor=none;align=center;verticalAlign=middle;whiteSpace=wrap;rounded=0;shadow=0;glass=0;sketch=0;fontSize=12;fontColor=#E4FDE1;fillColor=#ffffff;" vertex="1" parent="QH5kVCey-qOMAw6Wp_jd-320">
          <mxGeometry x="5" y="5" width="40" height="20" as="geometry" />
        </mxCell>
        <mxCell id="QH5kVCey-qOMAw6Wp_jd-323" value="" style="group;fontColor=#E4FDE1;fillColor=#ffffff;" vertex="1" connectable="0" parent="1">
          <mxGeometry x="820" y="690" width="50" height="30" as="geometry" />
        </mxCell>
        <mxCell id="QH5kVCey-qOMAw6Wp_jd-324" value="" style="rounded=1;whiteSpace=wrap;html=1;shadow=0;glass=0;sketch=0;strokeWidth=1;fontSize=14;fontColor=#E4FDE1;strokeColor=#028090;" vertex="1" parent="QH5kVCey-qOMAw6Wp_jd-323">
          <mxGeometry width="50" height="30" as="geometry" />
        </mxCell>
        <mxCell id="QH5kVCey-qOMAw6Wp_jd-325" value="&lt;font color=&quot;#3399ff&quot;&gt;桥&lt;/font&gt;" style="text;html=1;strokeColor=none;align=center;verticalAlign=middle;whiteSpace=wrap;rounded=0;shadow=0;glass=0;sketch=0;fontSize=12;fontColor=#E4FDE1;fillColor=#ffffff;" vertex="1" parent="QH5kVCey-qOMAw6Wp_jd-323">
          <mxGeometry x="5" y="5" width="40" height="20" as="geometry" />
        </mxCell>
        <mxCell id="QH5kVCey-qOMAw6Wp_jd-329" value="" style="group;fontColor=#E4FDE1;fillColor=#ffffff;" vertex="1" connectable="0" parent="1">
          <mxGeometry x="820" y="730" width="50" height="30" as="geometry" />
        </mxCell>
        <mxCell id="QH5kVCey-qOMAw6Wp_jd-330" value="" style="rounded=1;whiteSpace=wrap;html=1;shadow=0;glass=0;sketch=0;strokeWidth=1;fontSize=14;fontColor=#E4FDE1;strokeColor=#028090;" vertex="1" parent="QH5kVCey-qOMAw6Wp_jd-329">
          <mxGeometry width="50" height="30" as="geometry" />
        </mxCell>
        <mxCell id="QH5kVCey-qOMAw6Wp_jd-331" value="&lt;font color=&quot;#3399ff&quot;&gt;塔&lt;/font&gt;" style="text;html=1;strokeColor=none;align=center;verticalAlign=middle;whiteSpace=wrap;rounded=0;shadow=0;glass=0;sketch=0;fontSize=12;fontColor=#E4FDE1;fillColor=#ffffff;" vertex="1" parent="QH5kVCey-qOMAw6Wp_jd-329">
          <mxGeometry x="5" y="5" width="40" height="20" as="geometry" />
        </mxCell>
        <mxCell id="QH5kVCey-qOMAw6Wp_jd-332" value="" style="group;fontColor=#ffffff;strokeColor=#006EAF;fillColor=#1ba1e2;rounded=1;" vertex="1" connectable="0" parent="1">
          <mxGeometry x="827" y="360" width="80" height="30" as="geometry" />
        </mxCell>
        <mxCell id="QH5kVCey-qOMAw6Wp_jd-233" value="" style="rounded=1;whiteSpace=wrap;html=1;shadow=0;glass=0;sketch=0;strokeWidth=1;fontColor=#ffffff;strokeColor=#FF8000;fillColor=#FF8000;" vertex="1" parent="QH5kVCey-qOMAw6Wp_jd-332">
          <mxGeometry width="80" height="30" as="geometry" />
        </mxCell>
        <mxCell id="QH5kVCey-qOMAw6Wp_jd-234" value="&lt;span style=&quot;font-size: 12px&quot;&gt;设施&lt;/span&gt;" style="text;html=1;align=center;verticalAlign=middle;whiteSpace=wrap;rounded=1;shadow=0;glass=0;sketch=0;fontColor=#ffffff;fontSize=14;" vertex="1" parent="QH5kVCey-qOMAw6Wp_jd-332">
          <mxGeometry x="4.446535947712391" y="5" width="71.11111111111111" height="20" as="geometry" />
        </mxCell>
        <mxCell id="QH5kVCey-qOMAw6Wp_jd-333" value="" style="group;fontColor=#E4FDE1;fillColor=#ffffff;" vertex="1" connectable="0" parent="1">
          <mxGeometry x="820" y="620" width="50" height="30" as="geometry" />
        </mxCell>
        <mxCell id="QH5kVCey-qOMAw6Wp_jd-334" value="" style="rounded=1;whiteSpace=wrap;html=1;shadow=0;glass=0;sketch=0;strokeWidth=1;fontSize=14;fontColor=#E4FDE1;strokeColor=#028090;" vertex="1" parent="QH5kVCey-qOMAw6Wp_jd-333">
          <mxGeometry width="50" height="30" as="geometry" />
        </mxCell>
        <mxCell id="QH5kVCey-qOMAw6Wp_jd-335" value="&lt;font color=&quot;#3399ff&quot;&gt;喷泉&lt;/font&gt;" style="text;html=1;strokeColor=none;align=center;verticalAlign=middle;whiteSpace=wrap;rounded=0;shadow=0;glass=0;sketch=0;fontSize=12;fontColor=#E4FDE1;fillColor=#ffffff;" vertex="1" parent="QH5kVCey-qOMAw6Wp_jd-333">
          <mxGeometry x="5" y="5" width="40" height="20" as="geometry" />
        </mxCell>
        <mxCell id="QH5kVCey-qOMAw6Wp_jd-336" value="" style="group;fontColor=#E4FDE1;fillColor=#ffffff;" vertex="1" connectable="0" parent="1">
          <mxGeometry x="560" y="615" width="50" height="30" as="geometry" />
        </mxCell>
        <mxCell id="QH5kVCey-qOMAw6Wp_jd-337" value="" style="rounded=1;whiteSpace=wrap;html=1;shadow=0;glass=0;sketch=0;strokeWidth=1;fontSize=14;fontColor=#E4FDE1;strokeColor=#028090;" vertex="1" parent="QH5kVCey-qOMAw6Wp_jd-336">
          <mxGeometry width="50" height="30" as="geometry" />
        </mxCell>
        <mxCell id="QH5kVCey-qOMAw6Wp_jd-338" value="&lt;font color=&quot;#3399ff&quot;&gt;码头&lt;/font&gt;" style="text;html=1;strokeColor=none;align=center;verticalAlign=middle;whiteSpace=wrap;rounded=0;shadow=0;glass=0;sketch=0;fontSize=12;fontColor=#E4FDE1;fillColor=#ffffff;" vertex="1" parent="QH5kVCey-qOMAw6Wp_jd-336">
          <mxGeometry x="5" y="5" width="40" height="20" as="geometry" />
        </mxCell>
        <mxCell id="QH5kVCey-qOMAw6Wp_jd-339" style="edgeStyle=orthogonalEdgeStyle;curved=1;rounded=0;orthogonalLoop=1;jettySize=auto;html=1;entryX=0;entryY=0.5;entryDx=0;entryDy=0;strokeColor=#028090;strokeWidth=2;fontSize=12;fontColor=#E4FDE1;exitX=0.5;exitY=1;exitDx=0;exitDy=0;labelBackgroundColor=#114B5F;" edge="1" parent="1" source="QH5kVCey-qOMAw6Wp_jd-337" target="QH5kVCey-qOMAw6Wp_jd-313">
          <mxGeometry relative="1" as="geometry" />
        </mxCell>
        <mxCell id="QH5kVCey-qOMAw6Wp_jd-340" style="edgeStyle=orthogonalEdgeStyle;curved=1;rounded=0;orthogonalLoop=1;jettySize=auto;html=1;strokeColor=#028090;strokeWidth=2;fontSize=12;fontColor=#E4FDE1;entryX=0;entryY=0.5;entryDx=0;entryDy=0;exitX=0.5;exitY=0;exitDx=0;exitDy=0;labelBackgroundColor=#114B5F;" edge="1" parent="1" source="QH5kVCey-qOMAw6Wp_jd-318" target="QH5kVCey-qOMAw6Wp_jd-313">
          <mxGeometry relative="1" as="geometry">
            <mxPoint x="680" y="675" as="targetPoint" />
          </mxGeometry>
        </mxCell>
        <mxCell id="QH5kVCey-qOMAw6Wp_jd-356" style="edgeStyle=orthogonalEdgeStyle;curved=1;rounded=0;orthogonalLoop=1;jettySize=auto;html=1;entryX=1;entryY=0.5;entryDx=0;entryDy=0;strokeColor=#028090;strokeWidth=2;fontSize=12;fontColor=#E4FDE1;labelBackgroundColor=#114B5F;" edge="1" parent="1" source="QH5kVCey-qOMAw6Wp_jd-321" target="QH5kVCey-qOMAw6Wp_jd-313">
          <mxGeometry relative="1" as="geometry" />
        </mxCell>
        <mxCell id="QH5kVCey-qOMAw6Wp_jd-358" style="edgeStyle=orthogonalEdgeStyle;curved=1;rounded=0;orthogonalLoop=1;jettySize=auto;html=1;entryX=1;entryY=0.5;entryDx=0;entryDy=0;strokeColor=#028090;strokeWidth=2;fontSize=12;fontColor=#E4FDE1;exitX=0.5;exitY=0;exitDx=0;exitDy=0;labelBackgroundColor=#114B5F;" edge="1" parent="1" source="QH5kVCey-qOMAw6Wp_jd-324" target="QH5kVCey-qOMAw6Wp_jd-313">
          <mxGeometry relative="1" as="geometry" />
        </mxCell>
        <mxCell id="QH5kVCey-qOMAw6Wp_jd-359" style="edgeStyle=orthogonalEdgeStyle;curved=1;rounded=0;orthogonalLoop=1;jettySize=auto;html=1;entryX=1;entryY=0.5;entryDx=0;entryDy=0;strokeColor=#028090;strokeWidth=2;fontSize=12;fontColor=#E4FDE1;labelBackgroundColor=#114B5F;" edge="1" parent="1" source="QH5kVCey-qOMAw6Wp_jd-330" target="QH5kVCey-qOMAw6Wp_jd-313">
          <mxGeometry relative="1" as="geometry" />
        </mxCell>
        <mxCell id="QH5kVCey-qOMAw6Wp_jd-360" style="edgeStyle=orthogonalEdgeStyle;curved=1;rounded=0;orthogonalLoop=1;jettySize=auto;html=1;entryX=1;entryY=0.5;entryDx=0;entryDy=0;strokeColor=#028090;strokeWidth=2;fontSize=12;fontColor=#E4FDE1;exitX=0.5;exitY=1;exitDx=0;exitDy=0;labelBackgroundColor=#114B5F;" edge="1" parent="1" source="QH5kVCey-qOMAw6Wp_jd-334" target="QH5kVCey-qOMAw6Wp_jd-313">
          <mxGeometry relative="1" as="geometry" />
        </mxCell>
        <mxCell id="QH5kVCey-qOMAw6Wp_jd-362" value="" style="group;fontColor=#ffffff;fillColor=#1ba1e2;strokeColor=#006EAF;rounded=1;" vertex="1" connectable="0" parent="1">
          <mxGeometry x="680" y="820" width="80" height="30" as="geometry" />
        </mxCell>
        <mxCell id="QH5kVCey-qOMAw6Wp_jd-363" value="" style="rounded=1;whiteSpace=wrap;html=1;shadow=0;glass=0;sketch=0;strokeWidth=1;fontColor=#ffffff;strokeColor=#FF8000;fillColor=#FF8000;" vertex="1" parent="QH5kVCey-qOMAw6Wp_jd-362">
          <mxGeometry width="80" height="30" as="geometry" />
        </mxCell>
        <mxCell id="QH5kVCey-qOMAw6Wp_jd-364" value="&lt;span style=&quot;font-size: 12px&quot;&gt;建筑&lt;/span&gt;" style="text;html=1;align=center;verticalAlign=middle;whiteSpace=wrap;rounded=1;shadow=0;glass=0;sketch=0;fontColor=#ffffff;fontSize=14;" vertex="1" parent="QH5kVCey-qOMAw6Wp_jd-362">
          <mxGeometry x="4.446535947712391" y="5" width="71.11111111111111" height="20" as="geometry" />
        </mxCell>
        <mxCell id="QH5kVCey-qOMAw6Wp_jd-365" value="" style="group;fontColor=#ffffff;rounded=1;fillColor=#FF8000;strokeColor=#FF8000;" vertex="1" connectable="0" parent="1">
          <mxGeometry x="680" y="950" width="80" height="30" as="geometry" />
        </mxCell>
        <mxCell id="QH5kVCey-qOMAw6Wp_jd-366" value="" style="rounded=1;whiteSpace=wrap;html=1;shadow=0;glass=0;sketch=0;strokeWidth=1;fontColor=#ffffff;fillColor=#FF8000;strokeColor=#FF8000;" vertex="1" parent="QH5kVCey-qOMAw6Wp_jd-365">
          <mxGeometry width="80" height="30" as="geometry" />
        </mxCell>
        <mxCell id="QH5kVCey-qOMAw6Wp_jd-367" value="&lt;span style=&quot;font-size: 12px&quot;&gt;构筑物&lt;/span&gt;" style="text;html=1;align=center;verticalAlign=middle;whiteSpace=wrap;rounded=1;shadow=0;glass=0;sketch=0;fontColor=#ffffff;fontSize=14;" vertex="1" parent="QH5kVCey-qOMAw6Wp_jd-365">
          <mxGeometry x="4.446535947712391" y="5" width="71.11111111111111" height="20" as="geometry" />
        </mxCell>
        <mxCell id="QH5kVCey-qOMAw6Wp_jd-369" style="edgeStyle=orthogonalEdgeStyle;curved=1;rounded=0;orthogonalLoop=1;jettySize=auto;html=1;entryX=0.5;entryY=1;entryDx=0;entryDy=0;strokeColor=#006EAF;strokeWidth=2;fontSize=12;fontColor=#E4FDE1;labelBackgroundColor=#114B5F;fillColor=#1ba1e2;" edge="1" parent="1" source="QH5kVCey-qOMAw6Wp_jd-363" target="QH5kVCey-qOMAw6Wp_jd-313">
          <mxGeometry relative="1" as="geometry" />
        </mxCell>
        <mxCell id="QH5kVCey-qOMAw6Wp_jd-370" style="edgeStyle=orthogonalEdgeStyle;curved=1;rounded=0;orthogonalLoop=1;jettySize=auto;html=1;entryX=0.5;entryY=1;entryDx=0;entryDy=0;strokeColor=#006EAF;strokeWidth=2;fontSize=12;fontColor=#E4FDE1;labelBackgroundColor=#114B5F;fillColor=#1ba1e2;" edge="1" parent="1" source="QH5kVCey-qOMAw6Wp_jd-366" target="QH5kVCey-qOMAw6Wp_jd-363">
          <mxGeometry relative="1" as="geometry" />
        </mxCell>
        <mxCell id="QH5kVCey-qOMAw6Wp_jd-371" value="" style="group;fontColor=#E4FDE1;fillColor=#ffffff;" vertex="1" connectable="0" parent="1">
          <mxGeometry x="580" y="780" width="50" height="30" as="geometry" />
        </mxCell>
        <mxCell id="QH5kVCey-qOMAw6Wp_jd-372" value="" style="rounded=1;whiteSpace=wrap;html=1;shadow=0;glass=0;sketch=0;strokeWidth=1;fontSize=14;fontColor=#E4FDE1;strokeColor=#028090;" vertex="1" parent="QH5kVCey-qOMAw6Wp_jd-371">
          <mxGeometry width="50" height="30" as="geometry" />
        </mxCell>
        <mxCell id="QH5kVCey-qOMAw6Wp_jd-373" value="&lt;font color=&quot;#3399ff&quot;&gt;住宅楼&lt;/font&gt;" style="text;html=1;strokeColor=none;align=center;verticalAlign=middle;whiteSpace=wrap;rounded=0;shadow=0;glass=0;sketch=0;fontSize=12;fontColor=#E4FDE1;fillColor=#ffffff;" vertex="1" parent="QH5kVCey-qOMAw6Wp_jd-371">
          <mxGeometry x="5" y="5" width="40" height="20" as="geometry" />
        </mxCell>
        <mxCell id="QH5kVCey-qOMAw6Wp_jd-374" value="" style="group;fontColor=#E4FDE1;fillColor=#ffffff;" vertex="1" connectable="0" parent="1">
          <mxGeometry x="580" y="860" width="50" height="30" as="geometry" />
        </mxCell>
        <mxCell id="QH5kVCey-qOMAw6Wp_jd-375" value="" style="rounded=1;whiteSpace=wrap;html=1;shadow=0;glass=0;sketch=0;strokeWidth=1;fontSize=14;fontColor=#E4FDE1;strokeColor=#028090;" vertex="1" parent="QH5kVCey-qOMAw6Wp_jd-374">
          <mxGeometry width="50" height="30" as="geometry" />
        </mxCell>
        <mxCell id="QH5kVCey-qOMAw6Wp_jd-376" value="&lt;font color=&quot;#3399ff&quot;&gt;棚屋&lt;/font&gt;" style="text;html=1;strokeColor=none;align=center;verticalAlign=middle;whiteSpace=wrap;rounded=0;shadow=0;glass=0;sketch=0;fontSize=12;fontColor=#E4FDE1;fillColor=#ffffff;" vertex="1" parent="QH5kVCey-qOMAw6Wp_jd-374">
          <mxGeometry x="5" y="5" width="40" height="20" as="geometry" />
        </mxCell>
        <mxCell id="QH5kVCey-qOMAw6Wp_jd-377" value="" style="group;fontColor=#E4FDE1;fillColor=#ffffff;" vertex="1" connectable="0" parent="1">
          <mxGeometry x="800" y="780" width="70" height="30" as="geometry" />
        </mxCell>
        <mxCell id="QH5kVCey-qOMAw6Wp_jd-378" value="" style="rounded=1;whiteSpace=wrap;html=1;shadow=0;glass=0;sketch=0;strokeWidth=1;fontSize=14;fontColor=#E4FDE1;strokeColor=#028090;" vertex="1" parent="QH5kVCey-qOMAw6Wp_jd-377">
          <mxGeometry width="70" height="30" as="geometry" />
        </mxCell>
        <mxCell id="QH5kVCey-qOMAw6Wp_jd-379" value="&lt;font color=&quot;#3399ff&quot;&gt;摩天大楼&lt;/font&gt;" style="text;html=1;strokeColor=none;align=center;verticalAlign=middle;whiteSpace=wrap;rounded=0;shadow=0;glass=0;sketch=0;fontSize=12;fontColor=#E4FDE1;fillColor=#ffffff;" vertex="1" parent="QH5kVCey-qOMAw6Wp_jd-377">
          <mxGeometry x="7" y="5" width="56" height="20" as="geometry" />
        </mxCell>
        <mxCell id="QH5kVCey-qOMAw6Wp_jd-380" value="" style="group;fontColor=#E4FDE1;fillColor=#ffffff;" vertex="1" connectable="0" parent="1">
          <mxGeometry x="800" y="860" width="70" height="30" as="geometry" />
        </mxCell>
        <mxCell id="QH5kVCey-qOMAw6Wp_jd-381" value="" style="rounded=1;whiteSpace=wrap;html=1;shadow=0;glass=0;sketch=0;strokeWidth=1;fontSize=14;fontColor=#E4FDE1;strokeColor=#028090;" vertex="1" parent="QH5kVCey-qOMAw6Wp_jd-380">
          <mxGeometry width="70" height="30" as="geometry" />
        </mxCell>
        <mxCell id="QH5kVCey-qOMAw6Wp_jd-382" value="&lt;font color=&quot;#3399ff&quot;&gt;别墅&lt;/font&gt;" style="text;html=1;strokeColor=none;align=center;verticalAlign=middle;whiteSpace=wrap;rounded=0;shadow=0;glass=0;sketch=0;fontSize=12;fontColor=#E4FDE1;fillColor=#ffffff;" vertex="1" parent="QH5kVCey-qOMAw6Wp_jd-380">
          <mxGeometry x="7" y="5" width="56" height="20" as="geometry" />
        </mxCell>
        <mxCell id="QH5kVCey-qOMAw6Wp_jd-383" style="edgeStyle=orthogonalEdgeStyle;curved=1;rounded=0;orthogonalLoop=1;jettySize=auto;html=1;entryX=0;entryY=0.5;entryDx=0;entryDy=0;strokeColor=#028090;strokeWidth=2;fontSize=12;fontColor=#E4FDE1;exitX=0.5;exitY=1;exitDx=0;exitDy=0;labelBackgroundColor=#114B5F;" edge="1" parent="1" source="QH5kVCey-qOMAw6Wp_jd-372" target="QH5kVCey-qOMAw6Wp_jd-363">
          <mxGeometry relative="1" as="geometry" />
        </mxCell>
        <mxCell id="QH5kVCey-qOMAw6Wp_jd-384" style="edgeStyle=orthogonalEdgeStyle;curved=1;rounded=0;orthogonalLoop=1;jettySize=auto;html=1;strokeColor=#028090;strokeWidth=2;fontSize=12;fontColor=#E4FDE1;exitX=0.5;exitY=0;exitDx=0;exitDy=0;entryX=0;entryY=0.5;entryDx=0;entryDy=0;labelBackgroundColor=#114B5F;" edge="1" parent="1" source="QH5kVCey-qOMAw6Wp_jd-375" target="QH5kVCey-qOMAw6Wp_jd-363">
          <mxGeometry relative="1" as="geometry">
            <mxPoint x="680" y="840" as="targetPoint" />
          </mxGeometry>
        </mxCell>
        <mxCell id="QH5kVCey-qOMAw6Wp_jd-385" style="edgeStyle=orthogonalEdgeStyle;curved=1;rounded=0;orthogonalLoop=1;jettySize=auto;html=1;entryX=1;entryY=0.5;entryDx=0;entryDy=0;strokeColor=#028090;strokeWidth=2;fontSize=12;fontColor=#E4FDE1;exitX=0.5;exitY=1;exitDx=0;exitDy=0;labelBackgroundColor=#114B5F;" edge="1" parent="1" source="QH5kVCey-qOMAw6Wp_jd-378" target="QH5kVCey-qOMAw6Wp_jd-363">
          <mxGeometry relative="1" as="geometry" />
        </mxCell>
        <mxCell id="QH5kVCey-qOMAw6Wp_jd-386" style="edgeStyle=orthogonalEdgeStyle;curved=1;rounded=0;orthogonalLoop=1;jettySize=auto;html=1;strokeColor=#028090;strokeWidth=2;fontSize=12;fontColor=#E4FDE1;exitX=0.5;exitY=0;exitDx=0;exitDy=0;entryX=1;entryY=0.5;entryDx=0;entryDy=0;labelBackgroundColor=#114B5F;" edge="1" parent="1" source="QH5kVCey-qOMAw6Wp_jd-381" target="QH5kVCey-qOMAw6Wp_jd-363">
          <mxGeometry relative="1" as="geometry">
            <mxPoint x="760" y="840" as="targetPoint" />
          </mxGeometry>
        </mxCell>
        <mxCell id="QH5kVCey-qOMAw6Wp_jd-387" value="" style="group;fontColor=#E4FDE1;fillColor=#ffffff;" vertex="1" connectable="0" parent="1">
          <mxGeometry x="580" y="910" width="50" height="30" as="geometry" />
        </mxCell>
        <mxCell id="QH5kVCey-qOMAw6Wp_jd-388" value="" style="rounded=1;whiteSpace=wrap;html=1;shadow=0;glass=0;sketch=0;strokeWidth=1;fontSize=14;fontColor=#E4FDE1;strokeColor=#028090;" vertex="1" parent="QH5kVCey-qOMAw6Wp_jd-387">
          <mxGeometry width="50" height="30" as="geometry" />
        </mxCell>
        <mxCell id="QH5kVCey-qOMAw6Wp_jd-389" value="&lt;font color=&quot;#3399ff&quot;&gt;围栏&lt;/font&gt;" style="text;html=1;strokeColor=none;align=center;verticalAlign=middle;whiteSpace=wrap;rounded=0;shadow=0;glass=0;sketch=0;fontSize=12;fontColor=#E4FDE1;fillColor=#ffffff;" vertex="1" parent="QH5kVCey-qOMAw6Wp_jd-387">
          <mxGeometry x="5" y="5" width="40" height="20" as="geometry" />
        </mxCell>
        <mxCell id="QH5kVCey-qOMAw6Wp_jd-390" value="" style="group;fontColor=#E4FDE1;fillColor=#ffffff;" vertex="1" connectable="0" parent="1">
          <mxGeometry x="580" y="990" width="50" height="30" as="geometry" />
        </mxCell>
        <mxCell id="QH5kVCey-qOMAw6Wp_jd-391" value="" style="rounded=1;whiteSpace=wrap;html=1;shadow=0;glass=0;sketch=0;strokeWidth=1;fontSize=14;fontColor=#E4FDE1;strokeColor=#028090;" vertex="1" parent="QH5kVCey-qOMAw6Wp_jd-390">
          <mxGeometry width="50" height="30" as="geometry" />
        </mxCell>
        <mxCell id="QH5kVCey-qOMAw6Wp_jd-392" value="&lt;font color=&quot;#3399ff&quot;&gt;窗&lt;/font&gt;" style="text;html=1;strokeColor=none;align=center;verticalAlign=middle;whiteSpace=wrap;rounded=0;shadow=0;glass=0;sketch=0;fontSize=12;fontColor=#E4FDE1;fillColor=#ffffff;" vertex="1" parent="QH5kVCey-qOMAw6Wp_jd-390">
          <mxGeometry x="5" y="5" width="40" height="20" as="geometry" />
        </mxCell>
        <mxCell id="QH5kVCey-qOMAw6Wp_jd-393" style="edgeStyle=orthogonalEdgeStyle;curved=1;rounded=1;sketch=0;orthogonalLoop=1;jettySize=auto;html=1;entryX=0;entryY=0.5;entryDx=0;entryDy=0;strokeColor=#028090;fillColor=#F45B69;fontColor=#FFFFFF;exitX=0.5;exitY=1;exitDx=0;exitDy=0;strokeWidth=2;" edge="1" parent="1" source="QH5kVCey-qOMAw6Wp_jd-388" target="QH5kVCey-qOMAw6Wp_jd-366">
          <mxGeometry relative="1" as="geometry" />
        </mxCell>
        <mxCell id="QH5kVCey-qOMAw6Wp_jd-394" style="edgeStyle=orthogonalEdgeStyle;curved=1;rounded=1;sketch=0;orthogonalLoop=1;jettySize=auto;html=1;entryX=0;entryY=0.5;entryDx=0;entryDy=0;strokeColor=#028090;strokeWidth=2;fillColor=#F45B69;fontColor=#FFFFFF;exitX=0.5;exitY=0;exitDx=0;exitDy=0;" edge="1" parent="1" source="QH5kVCey-qOMAw6Wp_jd-391" target="QH5kVCey-qOMAw6Wp_jd-366">
          <mxGeometry relative="1" as="geometry" />
        </mxCell>
        <mxCell id="QH5kVCey-qOMAw6Wp_jd-395" value="" style="group;fontColor=#E4FDE1;fillColor=#ffffff;" vertex="1" connectable="0" parent="1">
          <mxGeometry x="530" y="950" width="50" height="30" as="geometry" />
        </mxCell>
        <mxCell id="QH5kVCey-qOMAw6Wp_jd-396" value="" style="rounded=1;whiteSpace=wrap;html=1;shadow=0;glass=0;sketch=0;strokeWidth=1;fontSize=14;fontColor=#E4FDE1;strokeColor=#028090;" vertex="1" parent="QH5kVCey-qOMAw6Wp_jd-395">
          <mxGeometry width="50" height="30" as="geometry" />
        </mxCell>
        <mxCell id="QH5kVCey-qOMAw6Wp_jd-397" value="&lt;font color=&quot;#3399ff&quot;&gt;地板&lt;/font&gt;" style="text;html=1;strokeColor=none;align=center;verticalAlign=middle;whiteSpace=wrap;rounded=0;shadow=0;glass=0;sketch=0;fontSize=12;fontColor=#E4FDE1;fillColor=#ffffff;" vertex="1" parent="QH5kVCey-qOMAw6Wp_jd-395">
          <mxGeometry x="5" y="5" width="40" height="20" as="geometry" />
        </mxCell>
        <mxCell id="QH5kVCey-qOMAw6Wp_jd-398" style="edgeStyle=orthogonalEdgeStyle;curved=1;rounded=1;sketch=0;orthogonalLoop=1;jettySize=auto;html=1;strokeColor=#028090;strokeWidth=2;fillColor=#F45B69;fontColor=#FFFFFF;" edge="1" parent="1" source="QH5kVCey-qOMAw6Wp_jd-396">
          <mxGeometry relative="1" as="geometry">
            <mxPoint x="680" y="965" as="targetPoint" />
          </mxGeometry>
        </mxCell>
        <mxCell id="QH5kVCey-qOMAw6Wp_jd-399" value="" style="group;fontColor=#E4FDE1;fillColor=#ffffff;" vertex="1" connectable="0" parent="1">
          <mxGeometry x="800" y="910" width="50" height="30" as="geometry" />
        </mxCell>
        <mxCell id="QH5kVCey-qOMAw6Wp_jd-400" value="" style="rounded=1;whiteSpace=wrap;html=1;shadow=0;glass=0;sketch=0;strokeWidth=1;fontSize=14;fontColor=#E4FDE1;strokeColor=#028090;" vertex="1" parent="QH5kVCey-qOMAw6Wp_jd-399">
          <mxGeometry width="50" height="30" as="geometry" />
        </mxCell>
        <mxCell id="QH5kVCey-qOMAw6Wp_jd-401" value="&lt;font color=&quot;#3399ff&quot;&gt;彩绘&lt;/font&gt;" style="text;html=1;strokeColor=none;align=center;verticalAlign=middle;whiteSpace=wrap;rounded=0;shadow=0;glass=0;sketch=0;fontSize=12;fontColor=#E4FDE1;fillColor=#ffffff;" vertex="1" parent="QH5kVCey-qOMAw6Wp_jd-399">
          <mxGeometry x="5" y="5" width="40" height="20" as="geometry" />
        </mxCell>
        <mxCell id="QH5kVCey-qOMAw6Wp_jd-402" value="" style="group;fontColor=#E4FDE1;fillColor=#ffffff;" vertex="1" connectable="0" parent="1">
          <mxGeometry x="800" y="990" width="50" height="30" as="geometry" />
        </mxCell>
        <mxCell id="QH5kVCey-qOMAw6Wp_jd-403" value="" style="rounded=1;whiteSpace=wrap;html=1;shadow=0;glass=0;sketch=0;strokeWidth=1;fontSize=14;fontColor=#E4FDE1;strokeColor=#028090;" vertex="1" parent="QH5kVCey-qOMAw6Wp_jd-402">
          <mxGeometry width="50" height="30" as="geometry" />
        </mxCell>
        <mxCell id="QH5kVCey-qOMAw6Wp_jd-404" value="&lt;font color=&quot;#3399ff&quot;&gt;蓬窗&lt;/font&gt;" style="text;html=1;strokeColor=none;align=center;verticalAlign=middle;whiteSpace=wrap;rounded=0;shadow=0;glass=0;sketch=0;fontSize=12;fontColor=#E4FDE1;fillColor=#ffffff;" vertex="1" parent="QH5kVCey-qOMAw6Wp_jd-402">
          <mxGeometry x="5" y="5" width="40" height="20" as="geometry" />
        </mxCell>
        <mxCell id="QH5kVCey-qOMAw6Wp_jd-405" value="" style="group;fontColor=#E4FDE1;fillColor=#ffffff;" vertex="1" connectable="0" parent="1">
          <mxGeometry x="850" y="950" width="50" height="30" as="geometry" />
        </mxCell>
        <mxCell id="QH5kVCey-qOMAw6Wp_jd-406" value="" style="rounded=1;whiteSpace=wrap;html=1;shadow=0;glass=0;sketch=0;strokeWidth=1;fontSize=14;fontColor=#E4FDE1;strokeColor=#028090;" vertex="1" parent="QH5kVCey-qOMAw6Wp_jd-405">
          <mxGeometry width="50" height="30" as="geometry" />
        </mxCell>
        <mxCell id="QH5kVCey-qOMAw6Wp_jd-407" value="&lt;font color=&quot;#3399ff&quot;&gt;墙体&lt;/font&gt;" style="text;html=1;strokeColor=none;align=center;verticalAlign=middle;whiteSpace=wrap;rounded=0;shadow=0;glass=0;sketch=0;fontSize=12;fontColor=#E4FDE1;fillColor=#ffffff;" vertex="1" parent="QH5kVCey-qOMAw6Wp_jd-405">
          <mxGeometry x="5" y="5" width="40" height="20" as="geometry" />
        </mxCell>
        <mxCell id="QH5kVCey-qOMAw6Wp_jd-408" style="edgeStyle=orthogonalEdgeStyle;curved=1;rounded=1;sketch=0;orthogonalLoop=1;jettySize=auto;html=1;entryX=1;entryY=0.5;entryDx=0;entryDy=0;strokeColor=#028090;strokeWidth=2;fillColor=#F45B69;fontColor=#FFFFFF;exitX=0.5;exitY=1;exitDx=0;exitDy=0;" edge="1" parent="1" source="QH5kVCey-qOMAw6Wp_jd-400" target="QH5kVCey-qOMAw6Wp_jd-366">
          <mxGeometry relative="1" as="geometry" />
        </mxCell>
        <mxCell id="QH5kVCey-qOMAw6Wp_jd-409" style="edgeStyle=orthogonalEdgeStyle;curved=1;rounded=1;sketch=0;orthogonalLoop=1;jettySize=auto;html=1;strokeColor=#028090;strokeWidth=2;fillColor=#F45B69;fontColor=#FFFFFF;entryX=1;entryY=0.5;entryDx=0;entryDy=0;exitX=0.5;exitY=0;exitDx=0;exitDy=0;" edge="1" parent="1" source="QH5kVCey-qOMAw6Wp_jd-403" target="QH5kVCey-qOMAw6Wp_jd-366">
          <mxGeometry relative="1" as="geometry">
            <mxPoint x="760" y="970" as="targetPoint" />
          </mxGeometry>
        </mxCell>
        <mxCell id="QH5kVCey-qOMAw6Wp_jd-410" style="edgeStyle=orthogonalEdgeStyle;curved=1;rounded=1;sketch=0;orthogonalLoop=1;jettySize=auto;html=1;strokeColor=#028090;strokeWidth=2;fillColor=#F45B69;fontColor=#FFFFFF;" edge="1" parent="1" source="QH5kVCey-qOMAw6Wp_jd-406">
          <mxGeometry relative="1" as="geometry">
            <mxPoint x="760" y="965" as="targetPoint" />
          </mxGeometry>
        </mxCell>
        <mxCell id="QH5kVCey-qOMAw6Wp_jd-411" value="" style="group;fontColor=#E4FDE1;fillColor=#ffffff;" vertex="1" connectable="0" parent="1">
          <mxGeometry x="760" y="1040" width="50" height="30" as="geometry" />
        </mxCell>
        <mxCell id="QH5kVCey-qOMAw6Wp_jd-412" value="" style="rounded=1;whiteSpace=wrap;html=1;shadow=0;glass=0;sketch=0;strokeWidth=1;fontSize=14;fontColor=#E4FDE1;strokeColor=#028090;" vertex="1" parent="QH5kVCey-qOMAw6Wp_jd-411">
          <mxGeometry width="50" height="30" as="geometry" />
        </mxCell>
        <mxCell id="QH5kVCey-qOMAw6Wp_jd-413" value="&lt;font color=&quot;#3399ff&quot;&gt;跑道&lt;/font&gt;" style="text;html=1;strokeColor=none;align=center;verticalAlign=middle;whiteSpace=wrap;rounded=0;shadow=0;glass=0;sketch=0;fontSize=12;fontColor=#E4FDE1;fillColor=#ffffff;" vertex="1" parent="QH5kVCey-qOMAw6Wp_jd-411">
          <mxGeometry x="5" y="5" width="40" height="20" as="geometry" />
        </mxCell>
        <mxCell id="QH5kVCey-qOMAw6Wp_jd-414" value="" style="group;fontColor=#E4FDE1;fillColor=#ffffff;" vertex="1" connectable="0" parent="1">
          <mxGeometry x="695" y="1070" width="50" height="30" as="geometry" />
        </mxCell>
        <mxCell id="QH5kVCey-qOMAw6Wp_jd-415" value="" style="rounded=1;whiteSpace=wrap;html=1;shadow=0;glass=0;sketch=0;strokeWidth=1;fontSize=14;fontColor=#E4FDE1;strokeColor=#028090;" vertex="1" parent="QH5kVCey-qOMAw6Wp_jd-414">
          <mxGeometry width="50" height="30" as="geometry" />
        </mxCell>
        <mxCell id="QH5kVCey-qOMAw6Wp_jd-416" value="&lt;font color=&quot;#3399ff&quot;&gt;车行道&lt;/font&gt;" style="text;html=1;strokeColor=none;align=center;verticalAlign=middle;whiteSpace=wrap;rounded=0;shadow=0;glass=0;sketch=0;fontSize=12;fontColor=#E4FDE1;fillColor=#ffffff;" vertex="1" parent="QH5kVCey-qOMAw6Wp_jd-414">
          <mxGeometry x="5" y="5" width="40" height="20" as="geometry" />
        </mxCell>
        <mxCell id="QH5kVCey-qOMAw6Wp_jd-417" value="" style="group;fillColor=#ffffff;" vertex="1" connectable="0" parent="1">
          <mxGeometry x="630" y="1040" width="50" height="30" as="geometry" />
        </mxCell>
        <mxCell id="QH5kVCey-qOMAw6Wp_jd-418" value="" style="rounded=1;whiteSpace=wrap;html=1;shadow=0;glass=0;sketch=0;strokeWidth=1;fontSize=14;fontColor=#E4FDE1;strokeColor=#028090;" vertex="1" parent="QH5kVCey-qOMAw6Wp_jd-417">
          <mxGeometry width="50" height="30" as="geometry" />
        </mxCell>
        <mxCell id="QH5kVCey-qOMAw6Wp_jd-419" value="&lt;font color=&quot;#3399ff&quot;&gt;土路&lt;/font&gt;" style="text;html=1;strokeColor=none;align=center;verticalAlign=middle;whiteSpace=wrap;rounded=0;shadow=0;glass=0;sketch=0;fontSize=12;fontColor=#E4FDE1;fillColor=#ffffff;" vertex="1" parent="QH5kVCey-qOMAw6Wp_jd-417">
          <mxGeometry x="5" y="5" width="40" height="20" as="geometry" />
        </mxCell>
        <mxCell id="QH5kVCey-qOMAw6Wp_jd-420" style="edgeStyle=orthogonalEdgeStyle;curved=1;rounded=1;sketch=0;orthogonalLoop=1;jettySize=auto;html=1;entryX=0.5;entryY=1;entryDx=0;entryDy=0;strokeColor=#028090;strokeWidth=2;fillColor=#F45B69;fontColor=#FFFFFF;" edge="1" parent="1" source="QH5kVCey-qOMAw6Wp_jd-418" target="QH5kVCey-qOMAw6Wp_jd-366">
          <mxGeometry relative="1" as="geometry" />
        </mxCell>
        <mxCell id="QH5kVCey-qOMAw6Wp_jd-421" style="edgeStyle=orthogonalEdgeStyle;curved=1;rounded=1;sketch=0;orthogonalLoop=1;jettySize=auto;html=1;entryX=0.5;entryY=1;entryDx=0;entryDy=0;strokeColor=#028090;strokeWidth=2;fillColor=#F45B69;fontColor=#FFFFFF;" edge="1" parent="1" source="QH5kVCey-qOMAw6Wp_jd-412" target="QH5kVCey-qOMAw6Wp_jd-366">
          <mxGeometry relative="1" as="geometry" />
        </mxCell>
        <mxCell id="QH5kVCey-qOMAw6Wp_jd-422" style="edgeStyle=orthogonalEdgeStyle;curved=1;rounded=1;sketch=0;orthogonalLoop=1;jettySize=auto;html=1;strokeColor=#028090;strokeWidth=2;fillColor=#F45B69;fontColor=#FFFFFF;" edge="1" parent="1" source="QH5kVCey-qOMAw6Wp_jd-415">
          <mxGeometry relative="1" as="geometry">
            <mxPoint x="720" y="980" as="targetPoint" />
          </mxGeometry>
        </mxCell>
      </root>
    </mxGraphModel>
  </diagram>
</mxfile>
